<?xml version="1.0" encoding="utf-8"?>
<!-- Generator: Adobe Illustrator 19.0.0, SVG Export Plug-In . SVG Version: 6.00 Build 0)  -->
<svg version="1.1" id="Layer_1" xmlns="http://www.w3.org/2000/svg" xmlns:xlink="http://www.w3.org/1999/xlink" x="0px" y="0px"
	 viewBox="-49 141 1091 512" style="enable-background:new -49 141 1091 512;" xml:space="preserve">
<style type="text/css">
	.st0{fill:#9CA1A6;}
	.st1{fill:#D08400;}
</style>
<path class="st0" d="M463,464.2C463,323.4,347.8,205,207,205S-49,323.4-49,464.2C-49,509-39.4,557-20.2,589h156.8
	c16,19.2,41.6,32,70.4,32s54.4-12.8,70.4-32h156.8C453.4,557,463,509,463,464.2z M399,365v32L267.8,509c0,3.2,3.2,9.6,3.2,16
	c0,35.2-28.8,64-64,64s-64-28.8-64-64s28.8-64,64-64c9.6,0,19.2,3.2,25.6,6.4L367,365H399z M271,269h32v32h-32V269z M111,269h32v32
	h-32V269z M15,525h-32v-32h32V525z M47,397H15v-32h32V397z M431,525h-32v-32h32V525z"/>
<path class="st0" d="M239,525c0,17.7-14.3,32-32,32s-32-14.3-32-32s14.3-32,32-32S239,507.3,239,525z"/>
<path class="st1" d="M1035,464.2C1035,323.4,919.8,205,779,205S523,323.4,523,464.2c0,44.8,9.6,92.8,28.8,124.8h156.8
	c16,19.2,41.6,32,70.4,32s54.4-12.8,70.4-32h156.8C1025.4,557,1035,509,1035,464.2z M971,365v32L839.8,509c0,3.2,3.2,9.6,3.2,16
	c0,35.2-28.8,64-64,64s-64-28.8-64-64s28.8-64,64-64c9.6,0,19.2,3.2,25.6,6.4L939,365H971z M843,269h32v32h-32V269z M683,269h32v32
	h-32V269z M587,525h-32v-32h32V525z M619,397h-32v-32h32V397z M1003,525h-32v-32h32V525z"/>
<path class="st1" d="M811,525c0,17.7-14.3,32-32,32s-32-14.3-32-32s14.3-32,32-32S811,507.3,811,525z"/>
</svg>
