<?xml version="1.0" encoding="utf-8"?>
<!-- Generator: Adobe Illustrator 19.0.0, SVG Export Plug-In . SVG Version: 6.00 Build 0)  -->
<svg version="1.1" id="Layer_1" xmlns="http://www.w3.org/2000/svg" xmlns:xlink="http://www.w3.org/1999/xlink" x="0px" y="0px"
	 viewBox="-49 141 1112 512" style="enable-background:new -49 141 1112 512;" xml:space="preserve">
<style type="text/css">
	.st0{fill:#9CA1A6;}
	.st1{fill:#D08400;}
</style>
<path class="st0" d="M-9,521.2l-32,131.2l131.2-32L384.6,326l-99.2-99.2L-9,521.2L-9,521.2z M7,620.4l-12.8-16l12.8-64l64,64
	L7,620.4z M307.8,281.2l-259.2,256L29.4,518l259.2-256L307.8,281.2L307.8,281.2z"/>
<path class="st0" d="M448.6,162.8c-35.2-35.2-83.2-16-83.2-16l-48,48l99.2,99.2l48-48C464.6,242.8,483.8,198,448.6,162.8
	L448.6,162.8z M387.8,191.6l-16-16c19.2-19.2,35.2-3.2,35.2-3.2L387.8,191.6z"/>
<path class="st1" d="M584.2,521.2l-32,131.2l131.2-32L977.8,326l-99.2-99.2L584.2,521.2L584.2,521.2z M600.2,620.4l-12.8-16l12.8-64
	l64,64L600.2,620.4z M901,281.2l-259.2,256L622.6,518l259.2-256L901,281.2L901,281.2z"/>
<path class="st1" d="M1041.8,162.8c-35.2-35.2-83.2-16-83.2-16l-48,48l99.2,99.2l48-48C1057.8,242.8,1077,198,1041.8,162.8
	L1041.8,162.8z M981,191.6l-16-16c19.2-19.2,35.2-3.2,35.2-3.2L981,191.6z"/>
</svg>
