<?xml version="1.0" encoding="utf-8"?>
<!-- Generator: Adobe Illustrator 19.0.0, SVG Export Plug-In . SVG Version: 6.00 Build 0)  -->
<svg version="1.1" id="Layer_1" xmlns="http://www.w3.org/2000/svg" xmlns:xlink="http://www.w3.org/1999/xlink" x="0px" y="0px"
	 viewBox="0 0 383.3 303.7" style="enable-background:new 0 0 383.3 303.7;" xml:space="preserve">
<style type="text/css">
	.st0{fill:#FFFFFF;}
	.st1{fill-rule:evenodd;clip-rule:evenodd;fill:#FFFFFF;}
</style>
<g id="XMLID_662_">
	<g id="XMLID_549_">
		<path id="XMLID_550_" class="st0" d="M42.3,219.5c-1.5-4.1-2.9-5.2-7.4-5.2c0,4.8,0,12.6,0,17.5l3.4,2.3v2.2c-4.4,0-10.1,0-14.6,0
			v-2.2l3.4-2.3c0-14.9,0-30.1,0-45l-2.8-2v-2.2h15.5c8.3,0,15,3.1,15,12.5v7c0,6.6-3.7,10.3-8.7,11.3c2.3,1.2,3.3,2.7,4.1,5.1
			l3.6,9.9c0.8,2.1,2.1,5.1,4.6,4.5v3c-1.5,0.8-3.9,1-5.6,1c-4.8,0-5.3-3.4-6.8-7.5L42.3,219.5z M34.8,187.5c0,8.3,0,14.1,0,22.4
			h4.9c5.1,0,7.1-2.8,7.1-7.7v-7c0-4.9-1.8-7.7-7-7.7H34.8z"/>
		<path id="XMLID_553_" class="st0" d="M66.9,236.4v-2.2l3.4-2.3c0-15.1,0-30.2,0-45.2l-2.9-2v-2c9.3,0,17.9,0,27.3,0v12h-3.8
			l-2.1-7.5H78.3c0,6.7,0,13.4,0,20.1h7.4l2-4.2h2.3c0,3.8,0,9.2,0,12.9h-2.3l-2-4.1h-7.4c0,5.7,0,11.3,0,16.9
			c0,1.2-0.3,1.9-1.6,2.4v0.4c4.4,0,8.7,0,13,0l2.6-7.4h3.4v12C86.1,236.4,76.5,236.4,66.9,236.4z"/>
		<path id="XMLID_555_" class="st0" d="M120.2,232c4.1,0,5.8-2.7,5.8-6.5V219c0-10-19.4-6-19.4-19.4v-6.5c0-8,5.9-11,12.1-11
			c3.1,0,6.2,0.6,8.7,3.4h0.3l0.6-2.9h5.2c0,4.7,0,9.6,0,14.4h-7.9v-3.9c0-3.8-2.1-5.9-5.7-5.9s-5.4,2.2-5.4,5.9v6.5
			c0,9.3,19.5,5.1,19.5,19.3v6.6c0,8.5-7,11.7-14.3,11.7c-7.4,0-13.7-3.6-13.7-11.8v-4.2h8.7v4.3C114.8,230.1,116.7,232,120.2,232z"
			/>
		<path id="XMLID_557_" class="st0" d="M163.5,187.5c0,14.6,0,29.3,0,43.9l3.4,2.4v2.6c-4.4,0-10.4,0-14.8,0v-2.6l3.4-2.4
			c0-14.6,0-29.3,0-43.9h-5.7l-2.5,8.8h-3.7l0.3-13.6H175l0.3,13.6h-3.7l-2.6-8.8H163.5z"/>
		<path id="XMLID_559_" class="st0" d="M216.5,222.8c0,8.7-6,14.3-15.4,14.3c-9.3,0-15.3-5.7-15.3-14.3v-26.7
			c0-8.6,6-14.3,15.3-14.3c9.4,0,15.4,5.7,15.4,14.3V222.8z M193.7,222.8c0,6,2.3,9.2,7.4,9.2c5.1,0,7.5-4.2,7.5-9.2v-26.7
			c0-5.1-2.4-9.2-7.5-9.2c-5.1,0-7.4,3.1-7.4,9.2V222.8z"/>
		<path id="XMLID_562_" class="st0" d="M242.9,224.6l7.7-40.4h5l7.4,40h0.1c2.1-12.6,4.4-25.1,6.4-37.7l-2.9-1.4v-2.4h10.6v2.4
			l-2.8,1.5l-8.8,50.2h-8.1l-6-30.8l-6.5,30.8h-7.7l-8.3-49.9l-3-1.7v-2.4h14.3v2.5l-3.1,1.5L242.9,224.6L242.9,224.6z"/>
		<path id="XMLID_564_" class="st0" d="M285.2,236.4v-2.2l3.4-2.3c0-15.1,0-30.2,0-45.2l-2.9-2v-2c9.3,0,17.9,0,27.3,0v12h-3.8
			l-2.1-7.5h-10.4c0,6.7,0,13.4,0,20.1h7.4l2-4.2h2.3c0,3.8,0,9.2,0,12.9h-2.3l-2-4.1h-7.4c0,5.7,0,11.3,0,16.9
			c0,1.2-0.3,1.9-1.6,2.4v0.4c4.4,0,8.7,0,13,0l2.6-7.4h3.4v12C304.4,236.4,294.8,236.4,285.2,236.4z"/>
		<path id="XMLID_566_" class="st0" d="M355.3,225.5c0,7.7-4.7,10.9-13.6,10.9h-17.5v-2.2l3.4-2.3c0-15,0-29.9,0-45l-2.9-2v-2.1
			h16.9c7.1,0,12.1,1.9,12.1,9.8v7.7c0,3-1.5,5.9-4.3,7c3.5,1.4,5.9,4.1,5.9,9.1V225.5z M341.5,231.8c4.1,0,5.8-2.3,5.8-6.3v-9
			c0-4.4-1.8-6.6-6.5-6.6h-5.5c0,6,0,13,0,19c0,1.4-0.3,2.1-1.6,2.5v0.4H341.5z M345.7,200.3v-7.7c0-2.9-1.6-5.4-4.7-5.4h-5.7
			c0,6.7,0,12.2,0,18.8c2.1,0,3.5,0,5.7,0C344.4,206.1,345.7,203.8,345.7,200.3z"/>
	</g>
	<g id="XMLID_435_">
		<path id="XMLID_436_" class="st0" d="M27.9,258.7c-0.4,0.3-1,0.4-1.6,0.4c-0.8,0-1.5-0.3-2-0.8c-0.5-0.5-0.8-1.2-0.8-2.1
			c0-0.9,0.3-1.7,0.8-2.3c0.5-0.6,1.3-0.9,2.2-0.9c0.5,0,1,0.1,1.3,0.3v0.9c-0.4-0.3-0.9-0.4-1.4-0.4c-0.6,0-1.1,0.2-1.4,0.6
			c-0.4,0.4-0.6,1-0.6,1.7c0,0.7,0.2,1.2,0.5,1.6c0.4,0.4,0.8,0.6,1.4,0.6c0.5,0,1-0.2,1.4-0.5V258.7z"/>
		<path id="XMLID_438_" class="st0" d="M34.6,254.1c-0.2-0.1-0.4-0.2-0.7-0.2c-0.4,0-0.7,0.2-1,0.6c-0.3,0.4-0.4,0.9-0.4,1.5v2.9
			h-0.9v-5.8h0.9v1.2h0c0.1-0.4,0.3-0.7,0.6-0.9c0.3-0.2,0.6-0.3,0.9-0.3c0.2,0,0.4,0,0.6,0.1V254.1z"/>
		<path id="XMLID_440_" class="st0" d="M42.4,256.3h-4.1c0,0.6,0.2,1.1,0.5,1.5c0.3,0.3,0.8,0.5,1.4,0.5c0.6,0,1.2-0.2,1.8-0.6v0.9
			c-0.5,0.4-1.2,0.6-2,0.6c-0.8,0-1.5-0.3-1.9-0.8c-0.5-0.5-0.7-1.3-0.7-2.2c0-0.9,0.3-1.6,0.8-2.2c0.5-0.6,1.1-0.8,1.9-0.8
			c0.8,0,1.3,0.2,1.7,0.7c0.4,0.5,0.6,1.2,0.6,2V256.3z M41.4,255.5c0-0.5-0.1-0.9-0.4-1.2c-0.3-0.3-0.6-0.4-1.1-0.4
			c-0.4,0-0.8,0.2-1.1,0.5c-0.3,0.3-0.5,0.7-0.6,1.2H41.4z"/>
		<path id="XMLID_444_" class="st0" d="M50.2,258.9h-0.9V258h0c-0.4,0.7-1,1-1.8,1c-0.6,0-1-0.2-1.3-0.5c-0.3-0.3-0.5-0.7-0.5-1.2
			c0-1.1,0.6-1.7,1.9-1.9l1.7-0.2c0-1-0.4-1.5-1.2-1.5c-0.7,0-1.3,0.2-1.9,0.7v-0.9c0.6-0.4,1.2-0.5,2-0.5c1.4,0,2,0.7,2,2.1V258.9z
			 M49.3,256l-1.4,0.2c-0.4,0.1-0.8,0.2-1,0.3c-0.2,0.2-0.3,0.4-0.3,0.8c0,0.3,0.1,0.5,0.3,0.7c0.2,0.2,0.5,0.3,0.8,0.3
			c0.5,0,0.8-0.2,1.1-0.5c0.3-0.3,0.4-0.7,0.4-1.2V256z"/>
		<path id="XMLID_447_" class="st0" d="M56.9,258.9c-0.2,0.1-0.5,0.2-0.9,0.2c-1,0-1.5-0.6-1.5-1.7V254h-1v-0.8h1v-1.4l0.9-0.3v1.7
			h1.5v0.8h-1.5v3.2c0,0.4,0.1,0.7,0.2,0.8c0.1,0.2,0.3,0.2,0.7,0.2c0.2,0,0.4-0.1,0.6-0.2V258.9z"/>
		<path id="XMLID_449_" class="st0" d="M60.9,251.7c-0.2,0-0.3-0.1-0.4-0.2s-0.2-0.3-0.2-0.4c0-0.2,0.1-0.3,0.2-0.4
			c0.1-0.1,0.3-0.2,0.4-0.2c0.2,0,0.3,0.1,0.4,0.2c0.1,0.1,0.2,0.3,0.2,0.4c0,0.2-0.1,0.3-0.2,0.4C61.2,251.7,61.1,251.7,60.9,251.7
			z M61.3,258.9h-0.9v-5.8h0.9V258.9z"/>
		<path id="XMLID_452_" class="st0" d="M70.3,258.9h-0.9v-3.3c0-1.2-0.4-1.8-1.3-1.8c-0.5,0-0.8,0.2-1.1,0.5
			c-0.3,0.3-0.5,0.8-0.5,1.3v3.3h-0.9v-5.8h0.9v1h0c0.4-0.7,1.1-1.1,1.9-1.1c0.6,0,1.1,0.2,1.4,0.6c0.3,0.4,0.5,1,0.5,1.8V258.9z"/>
		<path id="XMLID_454_" class="st0" d="M79.2,258.5c0,2.1-1,3.2-3,3.2c-0.7,0-1.3-0.1-1.9-0.4v-0.9c0.6,0.4,1.3,0.5,1.9,0.5
			c1.4,0,2.1-0.8,2.1-2.3V258h0c-0.4,0.7-1.1,1.1-2,1.1c-0.7,0-1.3-0.3-1.7-0.8c-0.4-0.5-0.7-1.2-0.7-2.1c0-1,0.2-1.8,0.7-2.3
			c0.5-0.6,1.1-0.9,1.9-0.9c0.8,0,1.4,0.3,1.7,0.9h0v-0.8h0.9V258.5z M78.3,256.3v-0.8c0-0.5-0.2-0.8-0.5-1.2
			c-0.3-0.3-0.7-0.5-1.2-0.5c-0.6,0-1,0.2-1.3,0.6c-0.3,0.4-0.5,1-0.5,1.7c0,0.6,0.2,1.2,0.5,1.5c0.3,0.4,0.7,0.6,1.2,0.6
			c0.5,0,0.9-0.2,1.3-0.6C78.2,257.4,78.3,256.9,78.3,256.3z"/>
		<path id="XMLID_460_" class="st0" d="M91.5,258.9c-0.2,0.1-0.5,0.2-0.9,0.2c-1,0-1.5-0.6-1.5-1.7V254h-1v-0.8h1v-1.4l0.9-0.3v1.7
			h1.5v0.8h-1.5v3.2c0,0.4,0.1,0.7,0.2,0.8c0.1,0.2,0.3,0.2,0.7,0.2c0.2,0,0.4-0.1,0.6-0.2V258.9z"/>
		<path id="XMLID_462_" class="st0" d="M99.9,258.9h-0.9v-3.3c0-1.2-0.4-1.8-1.3-1.8c-0.4,0-0.8,0.2-1.1,0.5
			c-0.3,0.3-0.5,0.8-0.5,1.3v3.3h-0.9v-8.5H96v3.7h0c0.4-0.7,1.1-1.1,1.9-1.1c1.3,0,1.9,0.8,1.9,2.3V258.9z"/>
		<path id="XMLID_464_" class="st0" d="M108.5,256.3h-4.1c0,0.6,0.2,1.1,0.5,1.5c0.3,0.3,0.8,0.5,1.4,0.5c0.6,0,1.2-0.2,1.8-0.6v0.9
			c-0.5,0.4-1.2,0.6-2,0.6c-0.8,0-1.5-0.3-1.9-0.8c-0.5-0.5-0.7-1.3-0.7-2.2c0-0.9,0.3-1.6,0.8-2.2c0.5-0.6,1.1-0.8,1.9-0.8
			c0.8,0,1.3,0.2,1.7,0.7c0.4,0.5,0.6,1.2,0.6,2V256.3z M107.6,255.5c0-0.5-0.1-0.9-0.4-1.2c-0.3-0.3-0.6-0.4-1.1-0.4
			c-0.4,0-0.8,0.2-1.1,0.5c-0.3,0.3-0.5,0.7-0.6,1.2H107.6z"/>
		<path id="XMLID_467_" class="st0" d="M118.6,258.1L118.6,258.1l0,0.8h-0.9v-8.5h0.9v3.8h0c0.5-0.8,1.1-1.1,2-1.1
			c0.7,0,1.3,0.3,1.7,0.8c0.4,0.5,0.6,1.2,0.6,2.1c0,1-0.2,1.7-0.7,2.3c-0.5,0.6-1.1,0.9-1.9,0.9C119.6,259.1,119,258.8,118.6,258.1
			z M118.6,255.8v0.8c0,0.5,0.2,0.9,0.5,1.2c0.3,0.3,0.7,0.5,1.2,0.5c0.6,0,1-0.2,1.3-0.6c0.3-0.4,0.5-1,0.5-1.8
			c0-0.6-0.1-1.1-0.4-1.5c-0.3-0.4-0.7-0.5-1.2-0.5c-0.5,0-1,0.2-1.3,0.6C118.8,254.8,118.6,255.2,118.6,255.8z"/>
		<path id="XMLID_470_" class="st0" d="M131.4,256.3h-4.1c0,0.6,0.2,1.1,0.5,1.5c0.3,0.3,0.8,0.5,1.4,0.5c0.6,0,1.2-0.2,1.8-0.6v0.9
			c-0.5,0.4-1.2,0.6-2,0.6c-0.8,0-1.5-0.3-1.9-0.8c-0.5-0.5-0.7-1.3-0.7-2.2c0-0.9,0.3-1.6,0.8-2.2c0.5-0.6,1.1-0.8,1.9-0.8
			c0.8,0,1.3,0.2,1.7,0.7c0.4,0.5,0.6,1.2,0.6,2V256.3z M130.4,255.5c0-0.5-0.1-0.9-0.4-1.2c-0.3-0.3-0.6-0.4-1.1-0.4
			c-0.4,0-0.8,0.2-1.1,0.5c-0.3,0.3-0.5,0.7-0.6,1.2H130.4z"/>
		<path id="XMLID_474_" class="st0" d="M134.7,258.7v-1c0.5,0.4,1.1,0.6,1.7,0.6c0.8,0,1.2-0.3,1.2-0.8c0-0.2,0-0.3-0.1-0.4
			c-0.1-0.1-0.2-0.2-0.3-0.3c-0.1-0.1-0.3-0.2-0.4-0.2c-0.2-0.1-0.3-0.1-0.5-0.2c-0.3-0.1-0.5-0.2-0.7-0.3c-0.2-0.1-0.4-0.2-0.5-0.3
			c-0.1-0.1-0.2-0.3-0.3-0.4c-0.1-0.2-0.1-0.4-0.1-0.6c0-0.3,0.1-0.5,0.2-0.7c0.1-0.2,0.3-0.4,0.5-0.5c0.2-0.1,0.4-0.2,0.7-0.3
			c0.3-0.1,0.5-0.1,0.8-0.1c0.5,0,0.9,0.1,1.3,0.3v0.9c-0.4-0.3-0.9-0.4-1.5-0.4c-0.2,0-0.3,0-0.5,0.1c-0.1,0-0.3,0.1-0.4,0.2
			c-0.1,0.1-0.2,0.2-0.2,0.3c-0.1,0.1-0.1,0.2-0.1,0.3c0,0.1,0,0.3,0.1,0.4c0.1,0.1,0.1,0.2,0.2,0.3c0.1,0.1,0.2,0.1,0.4,0.2
			c0.1,0.1,0.3,0.1,0.5,0.2c0.3,0.1,0.5,0.2,0.7,0.3c0.2,0.1,0.4,0.2,0.5,0.3c0.1,0.1,0.3,0.3,0.3,0.4c0.1,0.2,0.1,0.4,0.1,0.6
			c0,0.3-0.1,0.5-0.2,0.7c-0.1,0.2-0.3,0.4-0.5,0.5c-0.2,0.1-0.5,0.2-0.7,0.3c-0.3,0.1-0.6,0.1-0.9,0.1
			C135.7,259.1,135.1,259,134.7,258.7z"/>
		<path id="XMLID_476_" class="st0" d="M144.9,258.9c-0.2,0.1-0.5,0.2-0.9,0.2c-1,0-1.5-0.6-1.5-1.7V254h-1v-0.8h1v-1.4l0.9-0.3v1.7
			h1.5v0.8h-1.5v3.2c0,0.4,0.1,0.7,0.2,0.8c0.1,0.2,0.3,0.2,0.7,0.2c0.2,0,0.4-0.1,0.6-0.2V258.9z"/>
		<path id="XMLID_478_" class="st0" d="M157.8,258.7c-0.4,0.3-1,0.4-1.6,0.4c-0.8,0-1.5-0.3-2-0.8c-0.5-0.5-0.8-1.2-0.8-2.1
			c0-0.9,0.3-1.7,0.8-2.3c0.5-0.6,1.3-0.9,2.2-0.9c0.5,0,1,0.1,1.3,0.3v0.9c-0.4-0.3-0.9-0.4-1.4-0.4c-0.6,0-1.1,0.2-1.4,0.6
			c-0.4,0.4-0.6,1-0.6,1.7c0,0.7,0.2,1.2,0.5,1.6c0.4,0.4,0.8,0.6,1.4,0.6c0.5,0,1-0.2,1.4-0.5V258.7z"/>
		<path id="XMLID_482_" class="st0" d="M163.9,259.1c-0.9,0-1.5-0.3-2-0.8c-0.5-0.5-0.8-1.3-0.8-2.1c0-1,0.3-1.7,0.8-2.3
			c0.5-0.5,1.2-0.8,2.1-0.8c0.9,0,1.5,0.3,2,0.8c0.5,0.5,0.7,1.3,0.7,2.2c0,0.9-0.3,1.7-0.8,2.2
			C165.5,258.8,164.8,259.1,163.9,259.1z M164,253.8c-0.6,0-1.1,0.2-1.4,0.6c-0.3,0.4-0.5,1-0.5,1.7c0,0.7,0.2,1.2,0.5,1.6
			c0.3,0.4,0.8,0.6,1.4,0.6c0.6,0,1.1-0.2,1.4-0.6c0.3-0.4,0.5-0.9,0.5-1.6c0-0.7-0.2-1.3-0.5-1.7C165.1,254,164.6,253.8,164,253.8z
			"/>
		<path id="XMLID_485_" class="st0" d="M175.4,258.9h-0.9v-3.3c0-1.2-0.4-1.8-1.3-1.8c-0.5,0-0.8,0.2-1.1,0.5
			c-0.3,0.3-0.5,0.8-0.5,1.3v3.3h-0.9v-5.8h0.9v1h0c0.4-0.7,1.1-1.1,1.9-1.1c0.6,0,1.1,0.2,1.4,0.6c0.3,0.4,0.5,1,0.5,1.8V258.9z"/>
		<path id="XMLID_487_" class="st0" d="M184.3,258.9h-0.9v-1h0c-0.4,0.7-1.1,1.1-2,1.1c-0.7,0-1.3-0.3-1.7-0.8
			c-0.4-0.5-0.6-1.2-0.6-2.1c0-1,0.2-1.7,0.7-2.3c0.5-0.6,1.1-0.9,1.9-0.9c0.8,0,1.4,0.3,1.7,0.9h0v-3.6h0.9V258.9z M183.4,256.3
			v-0.8c0-0.5-0.2-0.9-0.5-1.2c-0.3-0.3-0.7-0.5-1.2-0.5c-0.6,0-1,0.2-1.3,0.6c-0.3,0.4-0.5,1-0.5,1.7c0,0.7,0.2,1.2,0.5,1.6
			c0.3,0.4,0.7,0.6,1.2,0.6c0.5,0,0.9-0.2,1.3-0.6C183.2,257.4,183.4,256.9,183.4,256.3z"/>
		<path id="XMLID_490_" class="st0" d="M188.9,251.7c-0.2,0-0.3-0.1-0.4-0.2c-0.1-0.1-0.2-0.3-0.2-0.4c0-0.2,0.1-0.3,0.2-0.4
			c0.1-0.1,0.3-0.2,0.4-0.2c0.2,0,0.3,0.1,0.4,0.2c0.1,0.1,0.2,0.3,0.2,0.4c0,0.2-0.1,0.3-0.2,0.4
			C189.3,251.7,189.1,251.7,188.9,251.7z M189.4,258.9h-0.9v-5.8h0.9V258.9z"/>
		<path id="XMLID_493_" class="st0" d="M196.2,258.9c-0.2,0.1-0.5,0.2-0.9,0.2c-1,0-1.5-0.6-1.5-1.7V254h-1v-0.8h1v-1.4l0.9-0.3v1.7
			h1.5v0.8h-1.5v3.2c0,0.4,0.1,0.7,0.2,0.8c0.1,0.2,0.3,0.2,0.7,0.2c0.2,0,0.4-0.1,0.6-0.2V258.9z"/>
		<path id="XMLID_495_" class="st0" d="M200.2,251.7c-0.2,0-0.3-0.1-0.4-0.2c-0.1-0.1-0.2-0.3-0.2-0.4c0-0.2,0.1-0.3,0.2-0.4
			c0.1-0.1,0.3-0.2,0.4-0.2c0.2,0,0.3,0.1,0.4,0.2c0.1,0.1,0.2,0.3,0.2,0.4c0,0.2-0.1,0.3-0.2,0.4
			C200.6,251.7,200.4,251.7,200.2,251.7z M200.7,258.9h-0.9v-5.8h0.9V258.9z"/>
		<path id="XMLID_498_" class="st0" d="M207.3,259.1c-0.9,0-1.5-0.3-2-0.8c-0.5-0.5-0.8-1.3-0.8-2.1c0-1,0.3-1.7,0.8-2.3
			c0.5-0.5,1.2-0.8,2.1-0.8c0.9,0,1.5,0.3,2,0.8c0.5,0.5,0.7,1.3,0.7,2.2c0,0.9-0.3,1.7-0.8,2.2
			C208.8,258.8,208.1,259.1,207.3,259.1z M207.3,253.8c-0.6,0-1.1,0.2-1.4,0.6c-0.3,0.4-0.5,1-0.5,1.7c0,0.7,0.2,1.2,0.5,1.6
			c0.3,0.4,0.8,0.6,1.4,0.6c0.6,0,1.1-0.2,1.4-0.6c0.3-0.4,0.5-0.9,0.5-1.6c0-0.7-0.2-1.3-0.5-1.7
			C208.4,254,207.9,253.8,207.3,253.8z"/>
		<path id="XMLID_510_" class="st0" d="M218.7,258.9h-0.9v-3.3c0-1.2-0.4-1.8-1.3-1.8c-0.5,0-0.8,0.2-1.1,0.5
			c-0.3,0.3-0.5,0.8-0.5,1.3v3.3h-0.9v-5.8h0.9v1h0c0.4-0.7,1.1-1.1,1.9-1.1c0.6,0,1.1,0.2,1.4,0.6c0.3,0.4,0.5,1,0.5,1.8V258.9z"/>
		<path id="XMLID_512_" class="st0" d="M222.4,258.7v-1c0.5,0.4,1.1,0.6,1.7,0.6c0.8,0,1.2-0.3,1.2-0.8c0-0.2,0-0.3-0.1-0.4
			c-0.1-0.1-0.2-0.2-0.3-0.3c-0.1-0.1-0.3-0.2-0.4-0.2c-0.2-0.1-0.3-0.1-0.5-0.2c-0.3-0.1-0.5-0.2-0.7-0.3c-0.2-0.1-0.4-0.2-0.5-0.3
			c-0.1-0.1-0.2-0.3-0.3-0.4c-0.1-0.2-0.1-0.4-0.1-0.6c0-0.3,0.1-0.5,0.2-0.7c0.1-0.2,0.3-0.4,0.5-0.5c0.2-0.1,0.4-0.2,0.7-0.3
			c0.3-0.1,0.5-0.1,0.8-0.1c0.5,0,0.9,0.1,1.3,0.3v0.9c-0.4-0.3-0.9-0.4-1.5-0.4c-0.2,0-0.3,0-0.5,0.1c-0.1,0-0.3,0.1-0.4,0.2
			c-0.1,0.1-0.2,0.2-0.2,0.3c-0.1,0.1-0.1,0.2-0.1,0.3c0,0.1,0,0.3,0.1,0.4c0.1,0.1,0.1,0.2,0.2,0.3c0.1,0.1,0.2,0.1,0.4,0.2
			c0.1,0.1,0.3,0.1,0.5,0.2c0.3,0.1,0.5,0.2,0.7,0.3c0.2,0.1,0.4,0.2,0.5,0.3c0.1,0.1,0.3,0.3,0.3,0.4c0.1,0.2,0.1,0.4,0.1,0.6
			c0,0.3-0.1,0.5-0.2,0.7c-0.1,0.2-0.3,0.4-0.5,0.5c-0.2,0.1-0.5,0.2-0.7,0.3c-0.3,0.1-0.6,0.1-0.9,0.1
			C223.3,259.1,222.8,259,222.4,258.7z"/>
		<path id="XMLID_514_" class="st0" d="M238.2,251.2c-0.2-0.1-0.4-0.2-0.6-0.2c-0.6,0-1,0.4-1,1.2v0.9h1.3v0.8h-1.3v5h-0.9v-5h-1
			v-0.8h1v-0.9c0-0.6,0.2-1.1,0.5-1.4c0.3-0.4,0.8-0.5,1.3-0.5c0.3,0,0.5,0,0.7,0.1V251.2z"/>
		<path id="XMLID_516_" class="st0" d="M243.7,259.1c-0.9,0-1.5-0.3-2-0.8c-0.5-0.5-0.8-1.3-0.8-2.1c0-1,0.3-1.7,0.8-2.3
			c0.5-0.5,1.2-0.8,2.1-0.8c0.9,0,1.5,0.3,2,0.8c0.5,0.5,0.7,1.3,0.7,2.2c0,0.9-0.3,1.7-0.8,2.2
			C245.3,258.8,244.6,259.1,243.7,259.1z M243.7,253.8c-0.6,0-1.1,0.2-1.4,0.6c-0.3,0.4-0.5,1-0.5,1.7c0,0.7,0.2,1.2,0.5,1.6
			c0.3,0.4,0.8,0.6,1.4,0.6c0.6,0,1.1-0.2,1.4-0.6c0.3-0.4,0.5-0.9,0.5-1.6c0-0.7-0.2-1.3-0.5-1.7
			C244.8,254,244.3,253.8,243.7,253.8z"/>
		<path id="XMLID_519_" class="st0" d="M253.3,254.1c-0.2-0.1-0.4-0.2-0.7-0.2c-0.4,0-0.7,0.2-1,0.6c-0.3,0.4-0.4,0.9-0.4,1.5v2.9
			h-0.9v-5.8h0.9v1.2h0c0.1-0.4,0.3-0.7,0.6-0.9c0.3-0.2,0.6-0.3,0.9-0.3c0.2,0,0.4,0,0.6,0.1V254.1z"/>
		<path id="XMLID_521_" class="st0" d="M266.7,253.2l-2.6,6.7c-0.5,1.2-1.1,1.8-2,1.8c-0.2,0-0.4,0-0.6-0.1v-0.8
			c0.2,0.1,0.4,0.1,0.5,0.1c0.5,0,0.8-0.3,1-0.8l0.5-1.1l-2.2-5.7h1l1.6,4.4c0,0.1,0.1,0.2,0.1,0.4h0c0-0.1,0.1-0.2,0.1-0.4l1.6-4.4
			H266.7z"/>
		<path id="XMLID_523_" class="st0" d="M272.3,259.1c-0.9,0-1.5-0.3-2-0.8c-0.5-0.5-0.8-1.3-0.8-2.1c0-1,0.3-1.7,0.8-2.3
			c0.5-0.5,1.2-0.8,2.1-0.8c0.9,0,1.5,0.3,2,0.8c0.5,0.5,0.7,1.3,0.7,2.2c0,0.9-0.3,1.7-0.8,2.2
			C273.9,258.8,273.2,259.1,272.3,259.1z M272.4,253.8c-0.6,0-1.1,0.2-1.4,0.6c-0.3,0.4-0.5,1-0.5,1.7c0,0.7,0.2,1.2,0.5,1.6
			c0.3,0.4,0.8,0.6,1.4,0.6c0.6,0,1.1-0.2,1.4-0.6c0.3-0.4,0.5-0.9,0.5-1.6c0-0.7-0.2-1.3-0.5-1.7C273.4,254,273,253.8,272.4,253.8z
			"/>
		<path id="XMLID_526_" class="st0" d="M283.6,258.9h-0.9V258h0c-0.4,0.7-1,1-1.8,1c-1.4,0-2.1-0.8-2.1-2.5v-3.4h0.9v3.3
			c0,1.2,0.5,1.8,1.4,1.8c0.4,0,0.8-0.2,1.1-0.5c0.3-0.3,0.4-0.8,0.4-1.3v-3.3h0.9V258.9z"/>
		<path id="XMLID_528_" class="st0" d="M290.8,254.1c-0.2-0.1-0.4-0.2-0.7-0.2c-0.4,0-0.7,0.2-1,0.6c-0.3,0.4-0.4,0.9-0.4,1.5v2.9
			h-0.9v-5.8h0.9v1.2h0c0.1-0.4,0.3-0.7,0.6-0.9c0.3-0.2,0.6-0.3,0.9-0.3c0.2,0,0.4,0,0.6,0.1V254.1z"/>
		<path id="XMLID_530_" class="st0" d="M300.5,258.1L300.5,258.1l0,0.8h-0.9v-8.5h0.9v3.8h0c0.5-0.8,1.1-1.1,2-1.1
			c0.7,0,1.3,0.3,1.7,0.8c0.4,0.5,0.6,1.2,0.6,2.1c0,1-0.2,1.7-0.7,2.3c-0.5,0.6-1.1,0.9-1.9,0.9
			C301.4,259.1,300.9,258.8,300.5,258.1z M300.4,255.8v0.8c0,0.5,0.2,0.9,0.5,1.2c0.3,0.3,0.7,0.5,1.2,0.5c0.6,0,1-0.2,1.3-0.6
			c0.3-0.4,0.5-1,0.5-1.8c0-0.6-0.1-1.1-0.4-1.5c-0.3-0.4-0.7-0.5-1.2-0.5c-0.5,0-1,0.2-1.3,0.6
			C300.6,254.8,300.4,255.2,300.4,255.8z"/>
		<path id="XMLID_533_" class="st0" d="M313.3,258.9h-0.9V258h0c-0.4,0.7-1,1-1.8,1c-1.4,0-2.1-0.8-2.1-2.5v-3.4h0.9v3.3
			c0,1.2,0.5,1.8,1.4,1.8c0.4,0,0.8-0.2,1.1-0.5c0.3-0.3,0.4-0.8,0.4-1.3v-3.3h0.9V258.9z"/>
		<path id="XMLID_535_" class="st0" d="M317.1,258.7v-1c0.5,0.4,1.1,0.6,1.7,0.6c0.8,0,1.2-0.3,1.2-0.8c0-0.2,0-0.3-0.1-0.4
			c-0.1-0.1-0.2-0.2-0.3-0.3c-0.1-0.1-0.3-0.2-0.4-0.2c-0.2-0.1-0.3-0.1-0.5-0.2c-0.3-0.1-0.5-0.2-0.7-0.3c-0.2-0.1-0.4-0.2-0.5-0.3
			c-0.1-0.1-0.2-0.3-0.3-0.4c-0.1-0.2-0.1-0.4-0.1-0.6c0-0.3,0.1-0.5,0.2-0.7c0.1-0.2,0.3-0.4,0.5-0.5c0.2-0.1,0.4-0.2,0.7-0.3
			c0.3-0.1,0.5-0.1,0.8-0.1c0.5,0,0.9,0.1,1.3,0.3v0.9c-0.4-0.3-0.9-0.4-1.5-0.4c-0.2,0-0.3,0-0.5,0.1c-0.1,0-0.3,0.1-0.4,0.2
			c-0.1,0.1-0.2,0.2-0.2,0.3c-0.1,0.1-0.1,0.2-0.1,0.3c0,0.1,0,0.3,0.1,0.4c0.1,0.1,0.1,0.2,0.2,0.3c0.1,0.1,0.2,0.1,0.4,0.2
			c0.1,0.1,0.3,0.1,0.5,0.2c0.3,0.1,0.5,0.2,0.7,0.3c0.2,0.1,0.4,0.2,0.5,0.3c0.1,0.1,0.3,0.3,0.3,0.4c0.1,0.2,0.1,0.4,0.1,0.6
			c0,0.3-0.1,0.5-0.2,0.7c-0.1,0.2-0.3,0.4-0.5,0.5c-0.2,0.1-0.5,0.2-0.7,0.3c-0.3,0.1-0.6,0.1-0.9,0.1
			C318,259.1,317.5,259,317.1,258.7z"/>
		<path id="XMLID_537_" class="st0" d="M325.1,251.7c-0.2,0-0.3-0.1-0.4-0.2c-0.1-0.1-0.2-0.3-0.2-0.4c0-0.2,0.1-0.3,0.2-0.4
			c0.1-0.1,0.3-0.2,0.4-0.2c0.2,0,0.3,0.1,0.4,0.2c0.1,0.1,0.2,0.3,0.2,0.4c0,0.2-0.1,0.3-0.2,0.4
			C325.4,251.7,325.2,251.7,325.1,251.7z M325.5,258.9h-0.9v-5.8h0.9V258.9z"/>
		<path id="XMLID_540_" class="st0" d="M334.5,258.9h-0.9v-3.3c0-1.2-0.4-1.8-1.3-1.8c-0.5,0-0.8,0.2-1.1,0.5
			c-0.3,0.3-0.5,0.8-0.5,1.3v3.3h-0.9v-5.8h0.9v1h0c0.4-0.7,1.1-1.1,1.9-1.1c0.6,0,1.1,0.2,1.4,0.6c0.3,0.4,0.5,1,0.5,1.8V258.9z"/>
		<path id="XMLID_542_" class="st0" d="M343.1,256.3h-4.1c0,0.6,0.2,1.1,0.5,1.5c0.3,0.3,0.8,0.5,1.4,0.5c0.6,0,1.2-0.2,1.8-0.6v0.9
			c-0.5,0.4-1.2,0.6-2,0.6c-0.8,0-1.5-0.3-1.9-0.8c-0.5-0.5-0.7-1.3-0.7-2.2c0-0.9,0.3-1.6,0.8-2.2c0.5-0.6,1.1-0.8,1.9-0.8
			c0.8,0,1.3,0.2,1.7,0.7c0.4,0.5,0.6,1.2,0.6,2V256.3z M342.2,255.5c0-0.5-0.1-0.9-0.4-1.2c-0.3-0.3-0.6-0.4-1.1-0.4
			c-0.4,0-0.8,0.2-1.1,0.5c-0.3,0.3-0.5,0.7-0.6,1.2H342.2z"/>
		<path id="XMLID_545_" class="st0" d="M346.5,258.7v-1c0.5,0.4,1.1,0.6,1.7,0.6c0.8,0,1.2-0.3,1.2-0.8c0-0.2,0-0.3-0.1-0.4
			c-0.1-0.1-0.2-0.2-0.3-0.3c-0.1-0.1-0.3-0.2-0.4-0.2c-0.2-0.1-0.3-0.1-0.5-0.2c-0.3-0.1-0.5-0.2-0.7-0.3c-0.2-0.1-0.4-0.2-0.5-0.3
			c-0.1-0.1-0.2-0.3-0.3-0.4c-0.1-0.2-0.1-0.4-0.1-0.6c0-0.3,0.1-0.5,0.2-0.7c0.1-0.2,0.3-0.4,0.5-0.5c0.2-0.1,0.4-0.2,0.7-0.3
			c0.3-0.1,0.5-0.1,0.8-0.1c0.5,0,0.9,0.1,1.3,0.3v0.9c-0.4-0.3-0.9-0.4-1.5-0.4c-0.2,0-0.3,0-0.5,0.1c-0.1,0-0.3,0.1-0.4,0.2
			c-0.1,0.1-0.2,0.2-0.2,0.3c-0.1,0.1-0.1,0.2-0.1,0.3c0,0.1,0,0.3,0.1,0.4c0.1,0.1,0.1,0.2,0.2,0.3c0.1,0.1,0.2,0.1,0.4,0.2
			c0.1,0.1,0.3,0.1,0.5,0.2c0.3,0.1,0.5,0.2,0.7,0.3c0.2,0.1,0.4,0.2,0.5,0.3c0.1,0.1,0.3,0.3,0.3,0.4c0.1,0.2,0.1,0.4,0.1,0.6
			c0,0.3-0.1,0.5-0.2,0.7c-0.1,0.2-0.3,0.4-0.5,0.5c-0.2,0.1-0.5,0.2-0.7,0.3c-0.3,0.1-0.6,0.1-0.9,0.1
			C347.4,259.1,346.9,259,346.5,258.7z"/>
		<path id="XMLID_547_" class="st0" d="M353.7,258.7v-1c0.5,0.4,1.1,0.6,1.7,0.6c0.8,0,1.2-0.3,1.2-0.8c0-0.2,0-0.3-0.1-0.4
			c-0.1-0.1-0.2-0.2-0.3-0.3c-0.1-0.1-0.3-0.2-0.4-0.2c-0.2-0.1-0.3-0.1-0.5-0.2c-0.3-0.1-0.5-0.2-0.7-0.3c-0.2-0.1-0.4-0.2-0.5-0.3
			c-0.1-0.1-0.2-0.3-0.3-0.4c-0.1-0.2-0.1-0.4-0.1-0.6c0-0.3,0.1-0.5,0.2-0.7c0.1-0.2,0.3-0.4,0.5-0.5c0.2-0.1,0.4-0.2,0.7-0.3
			c0.3-0.1,0.5-0.1,0.8-0.1c0.5,0,0.9,0.1,1.3,0.3v0.9c-0.4-0.3-0.9-0.4-1.5-0.4c-0.2,0-0.3,0-0.5,0.1c-0.1,0-0.3,0.1-0.4,0.2
			c-0.1,0.1-0.2,0.2-0.2,0.3c-0.1,0.1-0.1,0.2-0.1,0.3c0,0.1,0,0.3,0.1,0.4c0.1,0.1,0.1,0.2,0.2,0.3c0.1,0.1,0.2,0.1,0.4,0.2
			c0.1,0.1,0.3,0.1,0.5,0.2c0.3,0.1,0.5,0.2,0.7,0.3c0.2,0.1,0.4,0.2,0.5,0.3c0.1,0.1,0.3,0.3,0.3,0.4c0.1,0.2,0.1,0.4,0.1,0.6
			c0,0.3-0.1,0.5-0.2,0.7c-0.1,0.2-0.3,0.4-0.5,0.5c-0.2,0.1-0.5,0.2-0.7,0.3c-0.3,0.1-0.6,0.1-0.9,0.1
			C354.6,259.1,354.1,259,353.7,258.7z"/>
	</g>
	<path id="XMLID_670_" class="st1" d="M203.4,151.4c12-4.9,21.7-17.1,26.6-32.9h13C236.1,135,221.4,147.5,203.4,151.4L203.4,151.4z
		 M140.3,118.4h13c4.9,15.8,14.6,28,26.6,32.9C161.9,147.5,147.2,135,140.3,118.4L140.3,118.4z M126.5,116.1
		c11.4,24.5,36.3,41.5,65.2,41.5c28.9,0,53.8-17,65.2-41.5c0.3-0.6,0.2-1.2-0.1-1.8c-0.4-0.6-0.9-0.9-1.6-0.9h-127
		c-0.7,0-1.2,0.3-1.6,0.9C126.2,114.9,126.2,115.5,126.5,116.1L126.5,116.1z"/>
	<path id="XMLID_669_" class="st1" d="M148.9,88.3c-5.5,2.8-6.9,8.8-6.5,16.2l-0.5,0.6l-0.7-0.3c-9.1-17.2,10.4-27.3,9.8-40.4
		l0.4-0.6l0.7,0.1c5,5.4,2.6,15.1,3.5,20.4c1.1,6.4,9.4,4.5,10.8-4.2c0.4-2.2,0.3-4.7-0.5-7.1c-0.7-2.1-1.4-4.4-2-6.8
		c-2.5-10.2-3.5-22.7,7.2-31.4l0.7,0l0.2,0.7c-4.8,14.6,2.4,21.1,8.5,20.4c8.9-1,13.3-11.9,12.7-19.7c-0.5-6.6-1.9-9.5-4.5-12.8
		c-6.4-8.1-12.6-12.6-8.5-23.1L181,0l0.5,0.6c0.8,9.8,10.7,12.7,19.7,19.8c12.8,10,17.5,21.2,11.2,36.8c-1.3,3.3-2.6,6.7-2.2,9.7
		c1.4,10.3,17,5.2,10.3-8.4l0.1-0.7l0.7-0.1c6.8,3.9,11.1,11.6,8.3,20.3c-0.7,2.2-1.8,4.4-2.2,6.3c-1.4,6.5,5.4,5.9,7.5,1.7
		c0.7-1.4,0.9-3.1,0.6-4.6l0.3-0.7l0.7,0c7.8,5.9,9.2,14.4,6.6,22.6l-0.7,0.4L242,103c-0.1-4.8-2.1-8.4-5.7-10.3
		c-5.5,5.4-14.2,3.9-16-1.8c-1.8-5.7,3.2-11.4,2.8-14.8c-9.4,12.3-25.3,0.2-19.9-16.1c6.4-16.5,3.1-23.1-2.4-28.2
		c7.7,21.1-13.8,41.1-29.9,30.1c0.3,3.9,1.4,6.5,2.4,9c3.6,9.2,1,23.7-9.7,27C156.7,100.1,148.6,96.4,148.9,88.3L148.9,88.3z"/>
	<path id="XMLID_668_" class="st0" d="M363,147.7H248.9c1.6-1.5,3.2-3.1,4.7-4.7H365h2.1l0.3,2c0.2,1.8,0.8,3.5,1.5,5
		c0.8,1.6,1.8,3.1,3.1,4.3c1.3,1.3,2.7,2.3,4.3,3.1c1.6,0.8,3.3,1.3,5.1,1.5l2,0.3v2v95.9v2l-2,0.3c-1.8,0.2-3.5,0.8-5.1,1.5
		c-1.6,0.8-3.1,1.8-4.3,3.1c-1.3,1.3-2.3,2.7-3.1,4.3c-0.8,1.6-1.3,3.3-1.5,5.1l-0.3,2H365H18.3h-2l-0.3-2c-0.2-1.8-0.8-3.5-1.5-5.1
		c-0.8-1.6-1.8-3.1-3.1-4.3l0,0c-1.3-1.2-2.7-2.3-4.3-3.1c-1.6-0.8-3.3-1.3-5-1.5l-2-0.3v-2v-95.9v-2l2-0.3c1.8-0.2,3.5-0.8,5-1.5
		c1.6-0.8,3.1-1.8,4.3-3.1c1.3-1.3,2.3-2.7,3.1-4.3c0.8-1.6,1.3-3.3,1.5-5l0.3-2h2h111.4c1.5,1.6,3.1,3.2,4.7,4.7H20.3
		c-0.4,1.6-0.9,3.1-1.6,4.5c-1,2.1-2.4,4-4,5.6c-1.6,1.6-3.5,3-5.6,4c-1.4,0.7-2.9,1.2-4.5,1.6v92c1.6,0.4,3.1,0.9,4.5,1.6
		c2.1,1,3.9,2.4,5.6,4l0,0h0c1.6,1.6,3,3.5,4,5.6c0.7,1.4,1.2,2.9,1.6,4.5H363c0.4-1.6,0.9-3.1,1.6-4.5c1-2.1,2.4-4,4-5.6
		c1.6-1.6,3.5-3,5.6-4c1.4-0.7,2.9-1.2,4.5-1.6v-92c-1.6-0.4-3.1-0.9-4.5-1.6c-2.1-1-3.9-2.4-5.6-4l0,0c-1.6-1.6-3-3.5-4-5.6
		C363.9,150.8,363.4,149.3,363,147.7L363,147.7z"/>
	<g id="XMLID_663_">
		<g id="XMLID_420_">
			<path id="XMLID_425_" class="st0" d="M174.5,301.5l0.9-2.7h1.2v4.5c-3.1,0-6.3,0-9.5,0v-1c-0.1-6.5,6.2-9.1,6.2-14.2
				c0-1.3-0.6-2.4-1.7-2.4c-1.7,0-1.6,2.3-1.6,3.5h-2.8c0-3.1,1-5.3,4.3-5.3c2.9,0,4.7,1.3,4.7,4.2c0,5-6.1,7.7-6.2,13.4H174.5z"/>
			<path id="XMLID_427_" class="st0" d="M185.9,284c3.2,0,5.1,1.6,5.1,5.1v9.5c0,3.5-1.9,5.1-5.1,5.1s-5.1-2-5.1-5.1v-9.5
				C180.7,286.1,182.7,284,185.9,284z M183.6,298.6c0,1.4,0.4,3.3,2.3,3.3c1.9,0,2.3-1.6,2.3-3.3v-9.5c0-1.7-0.4-3.3-2.3-3.3
				c-1.9,0-2.3,1.9-2.3,3.3V298.6z"/>
			<path id="XMLID_430_" class="st0" d="M196.5,286l-1.6-0.5v-1.1c1.6,0,2.7,0,4.4,0c0,5.8,0,11.5,0,17.3l1.2,0.8v0.9
				c-1.6,0-3.6,0-5.2,0v-0.9l1.2-0.8C196.5,296.4,196.5,291.2,196.5,286z"/>
			<path id="XMLID_432_" class="st0" d="M214.6,295.3v3.9c0,3-2.2,4.5-5.1,4.5c-2.9,0-5-1.4-5-4.4c0-3.7,0-7.4,0-11
				c0-2.8,2.1-4.1,4.8-4.1c2.8,0,4.9,0.9,4.9,4v1h-2.8v-1c0-1.7-0.8-2.3-2.1-2.3c-1.3,0-2.1,0.8-2.1,2.4c0,1.7,0,2.5,0,4.2
				C209.2,290.3,214.6,290.9,214.6,295.3z M207.4,299.3c0,1.8,0.8,2.6,2.2,2.6c1.6,0,2.2-1.2,2.2-2.7v-3.9c0-3.3-4.4-3.5-4.4,0.1
				V299.3z"/>
		</g>
		<path id="XMLID_664_" class="st1" d="M227.4,291.6l0.6,2l0.3,0.2l2.1,0l0.3,0.2l-0.1,0.3l-1.7,1.2l-0.1,0.3l0.6,2l-0.1,0.3H229
			l-1.7-1.2H227l-1.7,1.2l-0.3,0l-0.1-0.3l0.7-2l-0.1-0.3l-1.7-1.2l-0.1-0.3l0.3-0.2l2.1,0l0.3-0.2l0.6-2l0.3-0.2L227.4,291.6
			L227.4,291.6z M156.4,291.6l0.6,2l0.3,0.2l2.1,0l0.3,0.2l-0.1,0.3l-1.7,1.2l-0.1,0.3l0.6,2l-0.1,0.3H158l-1.7-1.2H156l-1.7,1.2
			l-0.3,0l-0.1-0.3l0.7-2l-0.1-0.3l-1.7-1.2l-0.1-0.3l0.3-0.2l2.1,0l0.3-0.2l0.6-2l0.3-0.2L156.4,291.6L156.4,291.6z"/>
	</g>
</g>
</svg>
