<?xml version="1.0" encoding="utf-8"?>
<!-- Generator: Adobe Illustrator 19.0.0, SVG Export Plug-In . SVG Version: 6.00 Build 0)  -->
<svg version="1.1" id="Layer_1" xmlns="http://www.w3.org/2000/svg" xmlns:xlink="http://www.w3.org/1999/xlink" x="0px" y="0px"
	 viewBox="0 0 110.5 87.5" style="enable-background:new 0 0 110.5 87.5;" xml:space="preserve">
<style type="text/css">
	.st0{fill:#D08412;}
	.st1{fill-rule:evenodd;clip-rule:evenodd;fill:#D08412;}
</style>
<g id="XMLID_708_">
	<g id="XMLID_1007_">
		<path id="XMLID_1008_" class="st0" d="M12.2,63.3c-0.4-1.2-0.8-1.5-2.1-1.5c0,1.4,0,3.6,0,5.1l1,0.7v0.6c-1.3,0-2.9,0-4.2,0v-0.6
			l1-0.7c0-4.3,0-8.7,0-13L7,53.3v-0.6h4.5c2.4,0,4.3,0.9,4.3,3.6v2c0,1.9-1.1,3-2.5,3.2c0.7,0.4,0.9,0.8,1.2,1.5l1,2.8
			c0.2,0.6,0.6,1.5,1.3,1.3V68c-0.4,0.2-1.1,0.3-1.6,0.3c-1.4,0-1.5-1-2-2.2L12.2,63.3z M10,54c0,2.4,0,4.1,0,6.5h1.4
			c1.5,0,2.1-0.8,2.1-2.2v-2c0-1.4-0.5-2.2-2-2.2H10z"/>
		<path id="XMLID_1011_" class="st0" d="M19.3,68.1v-0.6l1-0.7c0-4.3,0-8.7,0-13l-0.8-0.6v-0.6c2.7,0,5.2,0,7.9,0v3.5h-1.1L25.6,54
			h-3c0,1.9,0,3.9,0,5.8h2.1l0.6-1.2h0.7c0,1.1,0,2.6,0,3.7h-0.7l-0.6-1.2h-2.1c0,1.6,0,3.2,0,4.9c0,0.4-0.1,0.6-0.5,0.7v0.1
			c1.3,0,2.5,0,3.8,0l0.8-2.1h1v3.5C24.8,68.1,22.1,68.1,19.3,68.1z"/>
		<path id="XMLID_1013_" class="st0" d="M34.6,66.9c1.2,0,1.7-0.8,1.7-1.9v-1.9c0-2.9-5.6-1.7-5.6-5.6v-1.9c0-2.3,1.7-3.2,3.5-3.2
			c0.9,0,1.8,0.2,2.5,1h0.1l0.2-0.8h1.5c0,1.4,0,2.8,0,4.1h-2.3v-1.1c0-1.1-0.6-1.7-1.6-1.7c-1,0-1.6,0.6-1.6,1.7v1.9
			c0,2.7,5.6,1.5,5.6,5.6V65c0,2.4-2,3.4-4.1,3.4c-2.1,0-4-1-4-3.4v-1.2h2.5V65C33.1,66.3,33.6,66.9,34.6,66.9z"/>
		<path id="XMLID_1015_" class="st0" d="M47.1,54c0,4.2,0,8.4,0,12.6l1,0.7v0.8c-1.3,0-3,0-4.3,0v-0.8l1-0.7c0-4.2,0-8.4,0-12.6
			h-1.7l-0.7,2.5h-1.1l0.1-3.9h9l0.1,3.9h-1.1L48.7,54H47.1z"/>
		<path id="XMLID_1017_" class="st0" d="M62.4,64.2c0,2.5-1.7,4.1-4.4,4.1c-2.7,0-4.4-1.7-4.4-4.1v-7.7c0-2.5,1.7-4.1,4.4-4.1
			c2.7,0,4.4,1.6,4.4,4.1V64.2z M55.8,64.2c0,1.7,0.7,2.6,2.1,2.6c1.5,0,2.2-1.2,2.2-2.6v-7.7c0-1.5-0.7-2.6-2.2-2.6
			c-1.5,0-2.1,0.9-2.1,2.6V64.2z"/>
		<path id="XMLID_1020_" class="st0" d="M70,64.7l2.2-11.7h1.4l2.1,11.5h0c0.6-3.6,1.3-7.2,1.9-10.9l-0.8-0.4v-0.7h3.1v0.7l-0.8,0.4
			l-2.5,14.5h-2.3l-1.7-8.9l-1.9,8.9h-2.2L66,53.8l-0.9-0.5v-0.7h4.1v0.7l-0.9,0.4L70,64.7L70,64.7z"/>
		<path id="XMLID_1022_" class="st0" d="M82.2,68.1v-0.6l1-0.7c0-4.3,0-8.7,0-13l-0.8-0.6v-0.6c2.7,0,5.2,0,7.9,0v3.5h-1.1L88.5,54
			h-3c0,1.9,0,3.9,0,5.8h2.1l0.6-1.2h0.7c0,1.1,0,2.6,0,3.7h-0.7l-0.6-1.2h-2.1c0,1.6,0,3.2,0,4.9c0,0.4-0.1,0.6-0.5,0.7v0.1
			c1.3,0,2.5,0,3.8,0l0.8-2.1h1v3.5C87.7,68.1,85,68.1,82.2,68.1z"/>
		<path id="XMLID_1024_" class="st0" d="M102.4,65c0,2.2-1.3,3.1-3.9,3.1h-5.1v-0.6l1-0.7c0-4.3,0-8.6,0-13l-0.8-0.6v-0.6h4.9
			c2.1,0,3.5,0.6,3.5,2.8v2.2c0,0.9-0.4,1.7-1.2,2c1,0.4,1.7,1.2,1.7,2.6V65z M98.4,66.8c1.2,0,1.7-0.7,1.7-1.8v-2.6
			c0-1.3-0.5-1.9-1.9-1.9h-1.6c0,1.7,0,3.8,0,5.5c0,0.4-0.1,0.6-0.5,0.7v0.1H98.4z M99.6,57.7v-2.2c0-0.8-0.5-1.5-1.4-1.5h-1.6
			c0,1.9,0,3.5,0,5.4c0.6,0,1,0,1.6,0C99.2,59.4,99.6,58.7,99.6,57.7z"/>
	</g>
	<g id="XMLID_909_">
		<path id="XMLID_910_" class="st0" d="M8,74.5c-0.1,0.1-0.3,0.1-0.5,0.1c-0.2,0-0.4-0.1-0.6-0.2c-0.1-0.2-0.2-0.4-0.2-0.6
			c0-0.3,0.1-0.5,0.2-0.7c0.2-0.2,0.4-0.2,0.6-0.2c0.1,0,0.3,0,0.4,0.1v0.3c-0.1-0.1-0.3-0.1-0.4-0.1c-0.2,0-0.3,0.1-0.4,0.2
			c-0.1,0.1-0.2,0.3-0.2,0.5c0,0.2,0.1,0.3,0.2,0.5c0.1,0.1,0.2,0.2,0.4,0.2c0.1,0,0.3,0,0.4-0.1V74.5z"/>
		<path id="XMLID_912_" class="st0" d="M10,73.2c0,0-0.1-0.1-0.2-0.1c-0.1,0-0.2,0.1-0.3,0.2c-0.1,0.1-0.1,0.3-0.1,0.4v0.8H9.1V73
			h0.3v0.3h0c0-0.1,0.1-0.2,0.2-0.3c0.1-0.1,0.2-0.1,0.3-0.1c0.1,0,0.1,0,0.2,0V73.2z"/>
		<path id="XMLID_914_" class="st0" d="M12.2,73.9H11c0,0.2,0.1,0.3,0.1,0.4c0.1,0.1,0.2,0.2,0.4,0.2c0.2,0,0.4-0.1,0.5-0.2v0.2
			c-0.1,0.1-0.3,0.2-0.6,0.2c-0.2,0-0.4-0.1-0.6-0.2c-0.1-0.2-0.2-0.4-0.2-0.6c0-0.3,0.1-0.5,0.2-0.6c0.1-0.2,0.3-0.2,0.5-0.2
			c0.2,0,0.4,0.1,0.5,0.2c0.1,0.1,0.2,0.3,0.2,0.6V73.9z M11.9,73.6c0-0.2,0-0.3-0.1-0.4c-0.1-0.1-0.2-0.1-0.3-0.1
			c-0.1,0-0.2,0-0.3,0.1c-0.1,0.1-0.1,0.2-0.2,0.4H11.9z"/>
		<path id="XMLID_917_" class="st0" d="M14.5,74.6h-0.3v-0.3h0c-0.1,0.2-0.3,0.3-0.5,0.3c-0.2,0-0.3,0-0.4-0.1
			c-0.1-0.1-0.1-0.2-0.1-0.3c0-0.3,0.2-0.5,0.5-0.5l0.5-0.1c0-0.3-0.1-0.4-0.3-0.4c-0.2,0-0.4,0.1-0.5,0.2v-0.3
			c0.2-0.1,0.4-0.2,0.6-0.2c0.4,0,0.6,0.2,0.6,0.6V74.6z M14.2,73.8l-0.4,0.1c-0.1,0-0.2,0-0.3,0.1c-0.1,0-0.1,0.1-0.1,0.2
			c0,0.1,0,0.1,0.1,0.2c0.1,0.1,0.1,0.1,0.2,0.1c0.1,0,0.2,0,0.3-0.1c0.1-0.1,0.1-0.2,0.1-0.4V73.8z"/>
		<path id="XMLID_920_" class="st0" d="M16.4,74.6c-0.1,0-0.1,0.1-0.2,0.1c-0.3,0-0.4-0.2-0.4-0.5v-1h-0.3V73h0.3v-0.4l0.3-0.1V73
			h0.4v0.2H16v0.9c0,0.1,0,0.2,0.1,0.2c0,0,0.1,0.1,0.2,0.1c0.1,0,0.1,0,0.2-0.1V74.6z"/>
		<path id="XMLID_922_" class="st0" d="M17.5,72.5c0,0-0.1,0-0.1,0c0,0-0.1-0.1-0.1-0.1c0,0,0-0.1,0.1-0.1c0,0,0.1,0,0.1,0
			c0,0,0.1,0,0.1,0c0,0,0.1,0.1,0.1,0.1c0,0,0,0.1-0.1,0.1C17.6,72.5,17.6,72.5,17.5,72.5z M17.7,74.6h-0.3V73h0.3V74.6z"/>
		<path id="XMLID_925_" class="st0" d="M20.3,74.6H20v-0.9c0-0.4-0.1-0.5-0.4-0.5c-0.1,0-0.2,0-0.3,0.1c-0.1,0.1-0.1,0.2-0.1,0.4
			v0.9h-0.3V73h0.3v0.3h0c0.1-0.2,0.3-0.3,0.5-0.3c0.2,0,0.3,0.1,0.4,0.2c0.1,0.1,0.1,0.3,0.1,0.5V74.6z"/>
		<path id="XMLID_927_" class="st0" d="M22.8,74.5c0,0.6-0.3,0.9-0.9,0.9c-0.2,0-0.4,0-0.5-0.1V75c0.2,0.1,0.4,0.2,0.5,0.2
			c0.4,0,0.6-0.2,0.6-0.7v-0.2h0c-0.1,0.2-0.3,0.3-0.6,0.3c-0.2,0-0.4-0.1-0.5-0.2c-0.1-0.1-0.2-0.3-0.2-0.6c0-0.3,0.1-0.5,0.2-0.7
			c0.1-0.2,0.3-0.2,0.6-0.2c0.2,0,0.4,0.1,0.5,0.3h0V73h0.3V74.5z M22.6,73.9v-0.2c0-0.1,0-0.2-0.1-0.3c-0.1-0.1-0.2-0.1-0.3-0.1
			c-0.2,0-0.3,0.1-0.4,0.2c-0.1,0.1-0.1,0.3-0.1,0.5c0,0.2,0,0.3,0.1,0.4c0.1,0.1,0.2,0.2,0.4,0.2c0.1,0,0.3-0.1,0.4-0.2
			C22.5,74.2,22.6,74,22.6,73.9z"/>
		<path id="XMLID_930_" class="st0" d="M26.4,74.6c-0.1,0-0.1,0.1-0.2,0.1c-0.3,0-0.4-0.2-0.4-0.5v-1h-0.3V73h0.3v-0.4l0.3-0.1V73
			h0.4v0.2H26v0.9c0,0.1,0,0.2,0.1,0.2c0,0,0.1,0.1,0.2,0.1c0.1,0,0.1,0,0.2-0.1V74.6z"/>
		<path id="XMLID_932_" class="st0" d="M28.8,74.6h-0.3v-1c0-0.3-0.1-0.5-0.4-0.5c-0.1,0-0.2,0-0.3,0.1c-0.1,0.1-0.1,0.2-0.1,0.4
			v0.9h-0.3v-2.5h0.3v1.1h0c0.1-0.2,0.3-0.3,0.5-0.3c0.4,0,0.6,0.2,0.6,0.7V74.6z"/>
		<path id="XMLID_934_" class="st0" d="M31.3,73.9h-1.2c0,0.2,0.1,0.3,0.1,0.4c0.1,0.1,0.2,0.2,0.4,0.2c0.2,0,0.4-0.1,0.5-0.2v0.2
			c-0.1,0.1-0.3,0.2-0.6,0.2c-0.2,0-0.4-0.1-0.6-0.2c-0.1-0.2-0.2-0.4-0.2-0.6c0-0.3,0.1-0.5,0.2-0.6c0.1-0.2,0.3-0.2,0.5-0.2
			c0.2,0,0.4,0.1,0.5,0.2c0.1,0.1,0.2,0.3,0.2,0.6V73.9z M31,73.6c0-0.2,0-0.3-0.1-0.4c-0.1-0.1-0.2-0.1-0.3-0.1
			c-0.1,0-0.2,0-0.3,0.1c-0.1,0.1-0.1,0.2-0.2,0.4H31z"/>
		<path id="XMLID_937_" class="st0" d="M34.2,74.4L34.2,74.4l0,0.2h-0.3v-2.5h0.3v1.1h0c0.1-0.2,0.3-0.3,0.6-0.3
			c0.2,0,0.4,0.1,0.5,0.2c0.1,0.1,0.2,0.3,0.2,0.6c0,0.3-0.1,0.5-0.2,0.7c-0.1,0.2-0.3,0.3-0.6,0.3C34.5,74.7,34.3,74.6,34.2,74.4z
			 M34.2,73.7v0.2c0,0.1,0,0.3,0.1,0.3c0.1,0.1,0.2,0.1,0.3,0.1c0.2,0,0.3-0.1,0.4-0.2c0.1-0.1,0.1-0.3,0.1-0.5c0-0.2,0-0.3-0.1-0.4
			c-0.1-0.1-0.2-0.2-0.3-0.2c-0.2,0-0.3,0.1-0.4,0.2C34.2,73.4,34.2,73.6,34.2,73.7z"/>
		<path id="XMLID_940_" class="st0" d="M37.9,73.9h-1.2c0,0.2,0.1,0.3,0.1,0.4c0.1,0.1,0.2,0.2,0.4,0.2c0.2,0,0.4-0.1,0.5-0.2v0.2
			c-0.1,0.1-0.3,0.2-0.6,0.2c-0.2,0-0.4-0.1-0.6-0.2c-0.1-0.2-0.2-0.4-0.2-0.6c0-0.3,0.1-0.5,0.2-0.6c0.1-0.2,0.3-0.2,0.5-0.2
			c0.2,0,0.4,0.1,0.5,0.2c0.1,0.1,0.2,0.3,0.2,0.6V73.9z M37.6,73.6c0-0.2,0-0.3-0.1-0.4c-0.1-0.1-0.2-0.1-0.3-0.1
			c-0.1,0-0.2,0-0.3,0.1c-0.1,0.1-0.1,0.2-0.2,0.4H37.6z"/>
		<path id="XMLID_943_" class="st0" d="M38.8,74.6v-0.3c0.1,0.1,0.3,0.2,0.5,0.2c0.2,0,0.3-0.1,0.3-0.2c0,0,0-0.1,0-0.1
			c0,0,0-0.1-0.1-0.1c0,0-0.1,0-0.1-0.1c0,0-0.1,0-0.1-0.1c-0.1,0-0.1-0.1-0.2-0.1c-0.1,0-0.1-0.1-0.1-0.1c0,0-0.1-0.1-0.1-0.1
			c0,0,0-0.1,0-0.2c0-0.1,0-0.1,0.1-0.2c0-0.1,0.1-0.1,0.1-0.2c0.1,0,0.1-0.1,0.2-0.1c0.1,0,0.2,0,0.2,0c0.1,0,0.3,0,0.4,0.1v0.3
			c-0.1-0.1-0.3-0.1-0.4-0.1c0,0-0.1,0-0.1,0c0,0-0.1,0-0.1,0c0,0-0.1,0-0.1,0.1c0,0,0,0.1,0,0.1c0,0,0,0.1,0,0.1c0,0,0,0.1,0.1,0.1
			c0,0,0.1,0,0.1,0.1c0,0,0.1,0,0.1,0.1c0.1,0,0.1,0.1,0.2,0.1c0.1,0,0.1,0.1,0.1,0.1c0,0,0.1,0.1,0.1,0.1c0,0,0,0.1,0,0.2
			c0,0.1,0,0.2-0.1,0.2c0,0.1-0.1,0.1-0.1,0.2c-0.1,0-0.1,0.1-0.2,0.1c-0.1,0-0.2,0-0.2,0C39.1,74.7,38.9,74.6,38.8,74.6z"/>
		<path id="XMLID_945_" class="st0" d="M41.8,74.6c-0.1,0-0.1,0.1-0.2,0.1c-0.3,0-0.4-0.2-0.4-0.5v-1h-0.3V73h0.3v-0.4l0.3-0.1V73
			h0.4v0.2h-0.4v0.9c0,0.1,0,0.2,0.1,0.2c0,0,0.1,0.1,0.2,0.1c0.1,0,0.1,0,0.2-0.1V74.6z"/>
		<path id="XMLID_947_" class="st0" d="M45.5,74.5c-0.1,0.1-0.3,0.1-0.5,0.1c-0.2,0-0.4-0.1-0.6-0.2c-0.1-0.2-0.2-0.4-0.2-0.6
			c0-0.3,0.1-0.5,0.2-0.7c0.2-0.2,0.4-0.2,0.6-0.2c0.1,0,0.3,0,0.4,0.1v0.3c-0.1-0.1-0.3-0.1-0.4-0.1c-0.2,0-0.3,0.1-0.4,0.2
			c-0.1,0.1-0.2,0.3-0.2,0.5c0,0.2,0.1,0.3,0.2,0.5c0.1,0.1,0.2,0.2,0.4,0.2c0.1,0,0.3,0,0.4-0.1V74.5z"/>
		<path id="XMLID_949_" class="st0" d="M47.2,74.7c-0.2,0-0.4-0.1-0.6-0.2c-0.1-0.2-0.2-0.4-0.2-0.6c0-0.3,0.1-0.5,0.2-0.7
			c0.2-0.2,0.4-0.2,0.6-0.2c0.2,0,0.4,0.1,0.6,0.2c0.1,0.2,0.2,0.4,0.2,0.6c0,0.3-0.1,0.5-0.2,0.6C47.7,74.6,47.5,74.7,47.2,74.7z
			 M47.3,73.1c-0.2,0-0.3,0.1-0.4,0.2c-0.1,0.1-0.1,0.3-0.1,0.5c0,0.2,0.1,0.4,0.2,0.5c0.1,0.1,0.2,0.2,0.4,0.2
			c0.2,0,0.3-0.1,0.4-0.2c0.1-0.1,0.1-0.3,0.1-0.5c0-0.2,0-0.4-0.1-0.5C47.6,73.2,47.4,73.1,47.3,73.1z"/>
		<path id="XMLID_952_" class="st0" d="M50.5,74.6h-0.3v-0.9c0-0.4-0.1-0.5-0.4-0.5c-0.1,0-0.2,0-0.3,0.1c-0.1,0.1-0.1,0.2-0.1,0.4
			v0.9h-0.3V73h0.3v0.3h0c0.1-0.2,0.3-0.3,0.5-0.3c0.2,0,0.3,0.1,0.4,0.2c0.1,0.1,0.1,0.3,0.1,0.5V74.6z"/>
		<path id="XMLID_954_" class="st0" d="M53.1,74.6h-0.3v-0.3h0c-0.1,0.2-0.3,0.3-0.6,0.3c-0.2,0-0.4-0.1-0.5-0.2
			c-0.1-0.1-0.2-0.4-0.2-0.6c0-0.3,0.1-0.5,0.2-0.7c0.1-0.2,0.3-0.2,0.6-0.2c0.2,0,0.4,0.1,0.5,0.3h0v-1h0.3V74.6z M52.8,73.9v-0.2
			c0-0.1,0-0.2-0.1-0.3c-0.1-0.1-0.2-0.1-0.3-0.1c-0.2,0-0.3,0.1-0.4,0.2c-0.1,0.1-0.1,0.3-0.1,0.5c0,0.2,0,0.3,0.1,0.5
			c0.1,0.1,0.2,0.2,0.4,0.2c0.1,0,0.3-0.1,0.4-0.2S52.8,74,52.8,73.9z"/>
		<path id="XMLID_957_" class="st0" d="M54.5,72.5c0,0-0.1,0-0.1,0c0,0-0.1-0.1-0.1-0.1c0,0,0-0.1,0.1-0.1c0,0,0.1,0,0.1,0
			c0,0,0.1,0,0.1,0s0.1,0.1,0.1,0.1c0,0,0,0.1-0.1,0.1S54.5,72.5,54.5,72.5z M54.6,74.6h-0.3V73h0.3V74.6z"/>
		<path id="XMLID_960_" class="st0" d="M56.6,74.6c-0.1,0-0.1,0.1-0.2,0.1c-0.3,0-0.4-0.2-0.4-0.5v-1h-0.3V73h0.3v-0.4l0.3-0.1V73
			h0.4v0.2h-0.4v0.9c0,0.1,0,0.2,0.1,0.2c0,0,0.1,0.1,0.2,0.1c0.1,0,0.1,0,0.2-0.1V74.6z"/>
		<path id="XMLID_962_" class="st0" d="M57.7,72.5c0,0-0.1,0-0.1,0c0,0-0.1-0.1-0.1-0.1c0,0,0-0.1,0.1-0.1c0,0,0.1,0,0.1,0
			c0,0,0.1,0,0.1,0c0,0,0.1,0.1,0.1,0.1c0,0,0,0.1-0.1,0.1C57.8,72.5,57.8,72.5,57.7,72.5z M57.8,74.6h-0.3V73h0.3V74.6z"/>
		<path id="XMLID_965_" class="st0" d="M59.7,74.7c-0.2,0-0.4-0.1-0.6-0.2c-0.1-0.2-0.2-0.4-0.2-0.6c0-0.3,0.1-0.5,0.2-0.7
			c0.2-0.2,0.4-0.2,0.6-0.2c0.2,0,0.4,0.1,0.6,0.2c0.1,0.2,0.2,0.4,0.2,0.6c0,0.3-0.1,0.5-0.2,0.6C60.2,74.6,60,74.7,59.7,74.7z
			 M59.7,73.1c-0.2,0-0.3,0.1-0.4,0.2c-0.1,0.1-0.1,0.3-0.1,0.5c0,0.2,0.1,0.4,0.2,0.5c0.1,0.1,0.2,0.2,0.4,0.2
			c0.2,0,0.3-0.1,0.4-0.2c0.1-0.1,0.1-0.3,0.1-0.5c0-0.2,0-0.4-0.1-0.5C60.1,73.2,59.9,73.1,59.7,73.1z"/>
		<path id="XMLID_968_" class="st0" d="M63,74.6h-0.3v-0.9c0-0.4-0.1-0.5-0.4-0.5c-0.1,0-0.2,0-0.3,0.1c-0.1,0.1-0.1,0.2-0.1,0.4
			v0.9h-0.3V73h0.3v0.3h0c0.1-0.2,0.3-0.3,0.5-0.3c0.2,0,0.3,0.1,0.4,0.2c0.1,0.1,0.1,0.3,0.1,0.5V74.6z"/>
		<path id="XMLID_970_" class="st0" d="M64.1,74.6v-0.3c0.1,0.1,0.3,0.2,0.5,0.2c0.2,0,0.3-0.1,0.3-0.2c0,0,0-0.1,0-0.1
			c0,0,0-0.1-0.1-0.1c0,0-0.1,0-0.1-0.1c0,0-0.1,0-0.1-0.1c-0.1,0-0.1-0.1-0.2-0.1c-0.1,0-0.1-0.1-0.1-0.1c0,0-0.1-0.1-0.1-0.1
			c0,0,0-0.1,0-0.2c0-0.1,0-0.1,0.1-0.2c0-0.1,0.1-0.1,0.1-0.2c0.1,0,0.1-0.1,0.2-0.1c0.1,0,0.2,0,0.2,0c0.1,0,0.3,0,0.4,0.1v0.3
			c-0.1-0.1-0.3-0.1-0.4-0.1c0,0-0.1,0-0.1,0c0,0-0.1,0-0.1,0c0,0-0.1,0-0.1,0.1c0,0,0,0.1,0,0.1c0,0,0,0.1,0,0.1c0,0,0,0.1,0.1,0.1
			c0,0,0.1,0,0.1,0.1c0,0,0.1,0,0.1,0.1c0.1,0,0.1,0.1,0.2,0.1c0.1,0,0.1,0.1,0.1,0.1c0,0,0.1,0.1,0.1,0.1c0,0,0,0.1,0,0.2
			c0,0.1,0,0.2-0.1,0.2c0,0.1-0.1,0.1-0.1,0.2c-0.1,0-0.1,0.1-0.2,0.1c-0.1,0-0.2,0-0.2,0C64.4,74.7,64.2,74.6,64.1,74.6z"/>
		<path id="XMLID_972_" class="st0" d="M68.6,72.4c-0.1,0-0.1,0-0.2,0c-0.2,0-0.3,0.1-0.3,0.4V73h0.4v0.2h-0.4v1.4h-0.3v-1.4h-0.3
			V73h0.3v-0.3c0-0.2,0.1-0.3,0.2-0.4c0.1-0.1,0.2-0.2,0.4-0.2c0.1,0,0.1,0,0.2,0V72.4z"/>
		<path id="XMLID_974_" class="st0" d="M70.2,74.7c-0.2,0-0.4-0.1-0.6-0.2c-0.1-0.2-0.2-0.4-0.2-0.6c0-0.3,0.1-0.5,0.2-0.7
			c0.2-0.2,0.4-0.2,0.6-0.2c0.2,0,0.4,0.1,0.6,0.2c0.1,0.2,0.2,0.4,0.2,0.6c0,0.3-0.1,0.5-0.2,0.6C70.7,74.6,70.5,74.7,70.2,74.7z
			 M70.2,73.1c-0.2,0-0.3,0.1-0.4,0.2c-0.1,0.1-0.1,0.3-0.1,0.5c0,0.2,0.1,0.4,0.2,0.5c0.1,0.1,0.2,0.2,0.4,0.2
			c0.2,0,0.3-0.1,0.4-0.2c0.1-0.1,0.1-0.3,0.1-0.5c0-0.2,0-0.4-0.1-0.5C70.5,73.2,70.4,73.1,70.2,73.1z"/>
		<path id="XMLID_977_" class="st0" d="M73,73.2c0,0-0.1-0.1-0.2-0.1c-0.1,0-0.2,0.1-0.3,0.2c-0.1,0.1-0.1,0.3-0.1,0.4v0.8h-0.3V73
			h0.3v0.3h0c0-0.1,0.1-0.2,0.2-0.3c0.1-0.1,0.2-0.1,0.3-0.1c0.1,0,0.1,0,0.2,0V73.2z"/>
		<path id="XMLID_979_" class="st0" d="M76.8,73l-0.8,1.9c-0.1,0.3-0.3,0.5-0.6,0.5c-0.1,0-0.1,0-0.2,0v-0.2c0.1,0,0.1,0,0.2,0
			c0.1,0,0.2-0.1,0.3-0.2l0.1-0.3L75.3,73h0.3l0.4,1.3c0,0,0,0.1,0,0.1h0c0,0,0-0.1,0-0.1l0.5-1.3H76.8z"/>
		<path id="XMLID_981_" class="st0" d="M78.5,74.7c-0.2,0-0.4-0.1-0.6-0.2c-0.1-0.2-0.2-0.4-0.2-0.6c0-0.3,0.1-0.5,0.2-0.7
			c0.2-0.2,0.4-0.2,0.6-0.2c0.2,0,0.4,0.1,0.6,0.2c0.1,0.2,0.2,0.4,0.2,0.6c0,0.3-0.1,0.5-0.2,0.6C78.9,74.6,78.7,74.7,78.5,74.7z
			 M78.5,73.1c-0.2,0-0.3,0.1-0.4,0.2c-0.1,0.1-0.1,0.3-0.1,0.5c0,0.2,0.1,0.4,0.2,0.5c0.1,0.1,0.2,0.2,0.4,0.2
			c0.2,0,0.3-0.1,0.4-0.2C79,74.2,79,74,79,73.8c0-0.2,0-0.4-0.1-0.5C78.8,73.2,78.7,73.1,78.5,73.1z"/>
		<path id="XMLID_984_" class="st0" d="M81.7,74.6h-0.3v-0.3h0c-0.1,0.2-0.3,0.3-0.5,0.3c-0.4,0-0.6-0.2-0.6-0.7v-1h0.3v0.9
			c0,0.3,0.1,0.5,0.4,0.5c0.1,0,0.2,0,0.3-0.1c0.1-0.1,0.1-0.2,0.1-0.4v-1h0.3V74.6z"/>
		<path id="XMLID_986_" class="st0" d="M83.8,73.2c0,0-0.1-0.1-0.2-0.1c-0.1,0-0.2,0.1-0.3,0.2c-0.1,0.1-0.1,0.3-0.1,0.4v0.8h-0.3
			V73h0.3v0.3h0c0-0.1,0.1-0.2,0.2-0.3c0.1-0.1,0.2-0.1,0.3-0.1c0.1,0,0.1,0,0.2,0V73.2z"/>
		<path id="XMLID_988_" class="st0" d="M86.6,74.4L86.6,74.4l0,0.2h-0.3v-2.5h0.3v1.1h0c0.1-0.2,0.3-0.3,0.6-0.3
			c0.2,0,0.4,0.1,0.5,0.2c0.1,0.1,0.2,0.3,0.2,0.6c0,0.3-0.1,0.5-0.2,0.7c-0.1,0.2-0.3,0.3-0.6,0.3C86.9,74.7,86.7,74.6,86.6,74.4z
			 M86.6,73.7v0.2c0,0.1,0,0.3,0.1,0.3c0.1,0.1,0.2,0.1,0.3,0.1c0.2,0,0.3-0.1,0.4-0.2c0.1-0.1,0.1-0.3,0.1-0.5c0-0.2,0-0.3-0.1-0.4
			c-0.1-0.1-0.2-0.2-0.3-0.2c-0.2,0-0.3,0.1-0.4,0.2C86.6,73.4,86.6,73.6,86.6,73.7z"/>
		<path id="XMLID_991_" class="st0" d="M90.3,74.6H90v-0.3h0c-0.1,0.2-0.3,0.3-0.5,0.3c-0.4,0-0.6-0.2-0.6-0.7v-1h0.3v0.9
			c0,0.3,0.1,0.5,0.4,0.5c0.1,0,0.2,0,0.3-0.1c0.1-0.1,0.1-0.2,0.1-0.4v-1h0.3V74.6z"/>
		<path id="XMLID_993_" class="st0" d="M91.4,74.6v-0.3c0.1,0.1,0.3,0.2,0.5,0.2c0.2,0,0.3-0.1,0.3-0.2c0,0,0-0.1,0-0.1
			c0,0,0-0.1-0.1-0.1c0,0-0.1,0-0.1-0.1c0,0-0.1,0-0.1-0.1c-0.1,0-0.1-0.1-0.2-0.1c-0.1,0-0.1-0.1-0.1-0.1c0,0-0.1-0.1-0.1-0.1
			c0,0,0-0.1,0-0.2c0-0.1,0-0.1,0.1-0.2c0-0.1,0.1-0.1,0.1-0.2c0.1,0,0.1-0.1,0.2-0.1c0.1,0,0.2,0,0.2,0c0.1,0,0.3,0,0.4,0.1v0.3
			c-0.1-0.1-0.3-0.1-0.4-0.1c0,0-0.1,0-0.1,0c0,0-0.1,0-0.1,0c0,0-0.1,0-0.1,0.1c0,0,0,0.1,0,0.1c0,0,0,0.1,0,0.1c0,0,0,0.1,0.1,0.1
			c0,0,0.1,0,0.1,0.1c0,0,0.1,0,0.1,0.1c0.1,0,0.1,0.1,0.2,0.1c0.1,0,0.1,0.1,0.1,0.1c0,0,0.1,0.1,0.1,0.1c0,0,0,0.1,0,0.2
			c0,0.1,0,0.2-0.1,0.2c0,0.1-0.1,0.1-0.1,0.2c-0.1,0-0.1,0.1-0.2,0.1c-0.1,0-0.2,0-0.2,0C91.6,74.7,91.5,74.6,91.4,74.6z"/>
		<path id="XMLID_995_" class="st0" d="M93.7,72.5c0,0-0.1,0-0.1,0c0,0-0.1-0.1-0.1-0.1c0,0,0-0.1,0.1-0.1c0,0,0.1,0,0.1,0
			c0,0,0.1,0,0.1,0s0.1,0.1,0.1,0.1c0,0,0,0.1-0.1,0.1S93.7,72.5,93.7,72.5z M93.8,74.6h-0.3V73h0.3V74.6z"/>
		<path id="XMLID_998_" class="st0" d="M96.4,74.6h-0.3v-0.9c0-0.4-0.1-0.5-0.4-0.5c-0.1,0-0.2,0-0.3,0.1c-0.1,0.1-0.1,0.2-0.1,0.4
			v0.9H95V73h0.3v0.3h0c0.1-0.2,0.3-0.3,0.5-0.3c0.2,0,0.3,0.1,0.4,0.2c0.1,0.1,0.1,0.3,0.1,0.5V74.6z"/>
		<path id="XMLID_1000_" class="st0" d="M98.9,73.9h-1.2c0,0.2,0.1,0.3,0.1,0.4c0.1,0.1,0.2,0.2,0.4,0.2c0.2,0,0.4-0.1,0.5-0.2v0.2
			c-0.1,0.1-0.3,0.2-0.6,0.2c-0.2,0-0.4-0.1-0.6-0.2c-0.1-0.2-0.2-0.4-0.2-0.6c0-0.3,0.1-0.5,0.2-0.6c0.1-0.2,0.3-0.2,0.5-0.2
			c0.2,0,0.4,0.1,0.5,0.2c0.1,0.1,0.2,0.3,0.2,0.6V73.9z M98.6,73.6c0-0.2,0-0.3-0.1-0.4c-0.1-0.1-0.2-0.1-0.3-0.1
			c-0.1,0-0.2,0-0.3,0.1c-0.1,0.1-0.1,0.2-0.2,0.4H98.6z"/>
		<path id="XMLID_1003_" class="st0" d="M99.9,74.6v-0.3c0.1,0.1,0.3,0.2,0.5,0.2c0.2,0,0.3-0.1,0.3-0.2c0,0,0-0.1,0-0.1
			c0,0,0-0.1-0.1-0.1c0,0-0.1,0-0.1-0.1c0,0-0.1,0-0.1-0.1c-0.1,0-0.1-0.1-0.2-0.1c-0.1,0-0.1-0.1-0.1-0.1c0,0-0.1-0.1-0.1-0.1
			c0,0,0-0.1,0-0.2c0-0.1,0-0.1,0.1-0.2c0-0.1,0.1-0.1,0.1-0.2c0.1,0,0.1-0.1,0.2-0.1c0.1,0,0.2,0,0.2,0c0.1,0,0.3,0,0.4,0.1v0.3
			c-0.1-0.1-0.3-0.1-0.4-0.1c0,0-0.1,0-0.1,0c0,0-0.1,0-0.1,0c0,0-0.1,0-0.1,0.1c0,0,0,0.1,0,0.1c0,0,0,0.1,0,0.1c0,0,0,0.1,0.1,0.1
			c0,0,0.1,0,0.1,0.1c0,0,0.1,0,0.1,0.1c0.1,0,0.1,0.1,0.2,0.1c0.1,0,0.1,0.1,0.1,0.1c0,0,0.1,0.1,0.1,0.1c0,0,0,0.1,0,0.2
			c0,0.1,0,0.2-0.1,0.2c0,0.1-0.1,0.1-0.1,0.2c-0.1,0-0.1,0.1-0.2,0.1c-0.1,0-0.2,0-0.2,0C100.1,74.7,100,74.6,99.9,74.6z"/>
		<path id="XMLID_1005_" class="st0" d="M101.9,74.6v-0.3c0.1,0.1,0.3,0.2,0.5,0.2c0.2,0,0.3-0.1,0.3-0.2c0,0,0-0.1,0-0.1
			c0,0,0-0.1-0.1-0.1c0,0-0.1,0-0.1-0.1c0,0-0.1,0-0.1-0.1c-0.1,0-0.1-0.1-0.2-0.1c-0.1,0-0.1-0.1-0.1-0.1c0,0-0.1-0.1-0.1-0.1
			c0,0,0-0.1,0-0.2c0-0.1,0-0.1,0.1-0.2c0-0.1,0.1-0.1,0.1-0.2c0.1,0,0.1-0.1,0.2-0.1c0.1,0,0.2,0,0.2,0c0.1,0,0.3,0,0.4,0.1v0.3
			c-0.1-0.1-0.3-0.1-0.4-0.1c0,0-0.1,0-0.1,0c0,0-0.1,0-0.1,0c0,0-0.1,0-0.1,0.1c0,0,0,0.1,0,0.1c0,0,0,0.1,0,0.1c0,0,0,0.1,0.1,0.1
			c0,0,0.1,0,0.1,0.1c0,0,0.1,0,0.1,0.1c0.1,0,0.1,0.1,0.2,0.1c0.1,0,0.1,0.1,0.1,0.1c0,0,0.1,0.1,0.1,0.1c0,0,0,0.1,0,0.2
			c0,0.1,0,0.2-0.1,0.2c0,0.1-0.1,0.1-0.1,0.2c-0.1,0-0.1,0.1-0.2,0.1c-0.1,0-0.2,0-0.2,0C102.2,74.7,102,74.6,101.9,74.6z"/>
	</g>
	<path id="XMLID_716_" class="st1" d="M58.6,43.6c3.4-1.4,6.2-4.9,7.7-9.5H70C68,38.9,63.8,42.5,58.6,43.6L58.6,43.6z M40.4,34.1
		h3.7c1.4,4.6,4.2,8.1,7.7,9.5C46.7,42.5,42.4,38.9,40.4,34.1L40.4,34.1z M36.4,33.5c3.3,7.1,10.5,12,18.8,12
		c8.3,0,15.5-4.9,18.8-12c0.1-0.2,0.1-0.4,0-0.5c-0.1-0.2-0.3-0.3-0.5-0.3H36.9c-0.2,0-0.4,0.1-0.5,0.3
		C36.4,33.1,36.4,33.3,36.4,33.5L36.4,33.5z"/>
	<path id="XMLID_715_" class="st1" d="M42.9,25.4c-1.6,0.8-2,2.5-1.9,4.7l-0.1,0.2l-0.2-0.1c-2.6-4.9,3-7.9,2.8-11.6l0.1-0.2l0.2,0
		c1.4,1.5,0.8,4.4,1,5.9c0.3,1.8,2.7,1.3,3.1-1.2c0.1-0.6,0.1-1.4-0.1-2c-0.2-0.6-0.4-1.3-0.6-2c-0.7-2.9-1-6.5,2.1-9l0.2,0l0.1,0.2
		c-1.4,4.2,0.7,6.1,2.5,5.9c2.6-0.3,3.8-3.4,3.7-5.7c-0.2-1.9-0.5-2.7-1.3-3.7c-1.8-2.3-3.6-3.6-2.4-6.7L52.2,0l0.2,0.2
		C52.6,3,55.4,3.8,58,5.9c3.7,2.9,5,6.1,3.2,10.6c-0.4,1-0.7,1.9-0.6,2.8c0.4,3,4.9,1.5,3-2.4l0-0.2l0.2,0c2,1.1,3.2,3.4,2.4,5.8
		c-0.2,0.6-0.5,1.3-0.6,1.8c-0.4,1.9,1.6,1.7,2.2,0.5c0.2-0.4,0.3-0.9,0.2-1.3l0.1-0.2l0.2,0c2.2,1.7,2.7,4.2,1.9,6.5l-0.2,0.1
		l-0.2-0.2c0-1.4-0.6-2.4-1.6-3c-1.6,1.6-4.1,1.1-4.6-0.5c-0.5-1.6,0.9-3.3,0.8-4.3c-2.7,3.5-7.3,0-5.7-4.6c1.9-4.8,0.9-6.7-0.7-8.1
		c2.2,6.1-4,11.8-8.6,8.7c0.1,1.1,0.4,1.9,0.7,2.6c1,2.6,0.3,6.8-2.8,7.8C45.2,28.8,42.8,27.8,42.9,25.4L42.9,25.4z"/>
	<path id="XMLID_714_" class="st0" d="M104.6,42.6H71.7c0.5-0.4,0.9-0.9,1.3-1.3h32.1h0.6l0.1,0.6c0.1,0.5,0.2,1,0.4,1.5
		c0.2,0.5,0.5,0.9,0.9,1.2c0.4,0.4,0.8,0.7,1.2,0.9c0.5,0.2,0.9,0.4,1.5,0.4l0.6,0.1v0.6v27.6v0.6l-0.6,0.1c-0.5,0.1-1,0.2-1.5,0.4
		c-0.5,0.2-0.9,0.5-1.2,0.9c-0.4,0.4-0.7,0.8-0.9,1.2c-0.2,0.5-0.4,0.9-0.4,1.5l-0.1,0.6h-0.6H5.3H4.7l-0.1-0.6
		c-0.1-0.5-0.2-1-0.4-1.5c-0.2-0.5-0.5-0.9-0.9-1.2l0,0c-0.4-0.4-0.8-0.7-1.2-0.9c-0.5-0.2-0.9-0.4-1.5-0.4L0,74.7v-0.6V46.5v-0.6
		l0.6-0.1c0.5-0.1,1-0.2,1.5-0.4c0.5-0.2,0.9-0.5,1.2-0.9c0.4-0.4,0.7-0.8,0.9-1.2c0.2-0.5,0.4-0.9,0.4-1.5l0.1-0.6h0.6h32.1
		c0.4,0.5,0.9,0.9,1.3,1.3H5.8c-0.1,0.5-0.3,0.9-0.5,1.3c-0.3,0.6-0.7,1.1-1.1,1.6c-0.5,0.5-1,0.9-1.6,1.1c-0.4,0.2-0.8,0.4-1.3,0.5
		v26.5c0.5,0.1,0.9,0.3,1.3,0.5c0.6,0.3,1.1,0.7,1.6,1.1l0,0h0c0.5,0.5,0.9,1,1.1,1.6c0.2,0.4,0.4,0.8,0.5,1.3h98.8
		c0.1-0.5,0.3-0.9,0.5-1.3c0.3-0.6,0.7-1.1,1.1-1.6c0.5-0.5,1-0.9,1.6-1.1c0.4-0.2,0.8-0.4,1.3-0.5V47.1c-0.5-0.1-0.9-0.3-1.3-0.5
		c-0.6-0.3-1.1-0.7-1.6-1.1l0,0c-0.5-0.5-0.9-1-1.1-1.6C104.9,43.5,104.7,43,104.6,42.6L104.6,42.6z"/>
	<g id="XMLID_709_">
		<g id="XMLID_898_">
			<path id="XMLID_899_" class="st0" d="M50.3,86.9l0.3-0.8h0.4v1.3c-0.9,0-1.8,0-2.7,0v-0.3c0-1.9,1.8-2.6,1.8-4.1
				c0-0.4-0.2-0.7-0.5-0.7c-0.5,0-0.5,0.7-0.5,1h-0.8c0-0.9,0.3-1.5,1.2-1.5c0.8,0,1.4,0.4,1.4,1.2c0,1.5-1.8,2.2-1.8,3.9H50.3z"/>
			<path id="XMLID_901_" class="st0" d="M53.6,81.9c0.9,0,1.5,0.5,1.5,1.5v2.7c0,1-0.5,1.5-1.5,1.5c-0.9,0-1.5-0.6-1.5-1.5v-2.7
				C52.1,82.4,52.6,81.9,53.6,81.9z M52.9,86.1c0,0.4,0.1,0.9,0.7,0.9c0.6,0,0.7-0.4,0.7-0.9v-2.7c0-0.5-0.1-0.9-0.7-0.9
				c-0.5,0-0.7,0.5-0.7,0.9V86.1z"/>
			<path id="XMLID_904_" class="st0" d="M56.6,82.4l-0.5-0.1v-0.3c0.5,0,0.8,0,1.3,0c0,1.7,0,3.3,0,5l0.3,0.2v0.3c-0.5,0-1,0-1.5,0
				v-0.3l0.4-0.2C56.6,85.4,56.6,83.9,56.6,82.4z"/>
			<path id="XMLID_906_" class="st0" d="M61.8,85.1v1.1c0,0.9-0.6,1.3-1.5,1.3c-0.8,0-1.4-0.4-1.4-1.3c0-1.1,0-2.1,0-3.2
				c0-0.8,0.6-1.2,1.4-1.2c0.8,0,1.4,0.3,1.4,1.2v0.3H61V83c0-0.5-0.2-0.7-0.6-0.7c-0.4,0-0.6,0.2-0.6,0.7c0,0.5,0,0.7,0,1.2
				C60.3,83.6,61.8,83.8,61.8,85.1z M59.8,86.3c0,0.5,0.2,0.7,0.6,0.7c0.4,0,0.6-0.3,0.6-0.8v-1.1c0-1-1.3-1-1.3,0V86.3z"/>
		</g>
		<path id="XMLID_710_" class="st1" d="M65.5,84l0.2,0.6l0.1,0.1l0.6,0l0.1,0.1l0,0.1L66,85.2l0,0.1l0.2,0.6l0,0.1H66l-0.5-0.4h-0.1
			l-0.5,0.4l-0.1,0l0-0.1l0.2-0.6l0-0.1l-0.5-0.4l0-0.1l0.1-0.1l0.6,0l0.1-0.1l0.2-0.6H65.5L65.5,84L65.5,84z M45.1,84l0.2,0.6
			l0.1,0.1l0.6,0l0.1,0.1l0,0.1l-0.5,0.4l0,0.1l0.2,0.6l0,0.1h-0.1L45,85.6H45l-0.5,0.4l-0.1,0l0-0.1l0.2-0.6l0-0.1L44,84.8l0-0.1
			l0.1-0.1l0.6,0l0.1-0.1l0.2-0.6H45.1L45.1,84L45.1,84z"/>
	</g>
</g>
</svg>
