<?xml version="1.0" encoding="utf-8"?>
<!-- Generator: Adobe Illustrator 19.0.0, SVG Export Plug-In . SVG Version: 6.00 Build 0)  -->
<svg version="1.1" id="Layer_1" xmlns="http://www.w3.org/2000/svg" xmlns:xlink="http://www.w3.org/1999/xlink" x="0px" y="0px"
	 viewBox="0 0 300.7 238" style="enable-background:new 0 0 300.7 238;" xml:space="preserve">
<style type="text/css">
	.st0{fill:#FDAA13;}
	.st1{fill:#FA5A10;}
	.st2{fill-rule:evenodd;clip-rule:evenodd;fill:#FDAA13;}
	.st3{fill-rule:evenodd;clip-rule:evenodd;fill:#FA5A10;}
</style>
<g id="XMLID_631_">
	<g id="XMLID_1137_">
		<path id="XMLID_1138_" class="st0" d="M33.2,172.2c-1.2-3.2-2.3-4.1-5.8-4.1c0,3.8,0,9.9,0,13.8l2.6,1.8v1.7c-3.5,0-7.9,0-11.4,0
			v-1.7l2.6-1.8c0-11.7,0-23.6,0-35.3l-2.2-1.6v-1.7h12.2c6.5,0,11.8,2.5,11.8,9.8v5.5c0,5.2-2.9,8-6.8,8.8c1.8,1,2.6,2.1,3.2,4
			l2.8,7.7c0.6,1.6,1.7,4,3.6,3.5v2.3c-1.2,0.6-3.1,0.8-4.4,0.8c-3.8,0-4.1-2.7-5.3-5.9L33.2,172.2z M27.3,147c0,6.5,0,11.1,0,17.6
			h3.8c4,0,5.6-2.2,5.6-6.1v-5.5c0-3.8-1.4-6.1-5.5-6.1H27.3z"/>
		<path id="XMLID_1141_" class="st0" d="M52.5,185.4v-1.7l2.7-1.8c0-11.8,0-23.7,0-35.4l-2.3-1.6v-1.6c7.3,0,14.1,0,21.4,0v9.4h-3
			l-1.7-5.9h-8.2c0,5.2,0,10.5,0,15.8h5.8l1.6-3.3h1.8c0,2.9,0,7.2,0,10.2h-1.8l-1.6-3.2h-5.8c0,4.4,0,8.8,0,13.3
			c0,1-0.2,1.5-1.3,1.9v0.3c3.4,0,6.8,0,10.2,0l2-5.8h2.6v9.4C67.5,185.4,60,185.4,52.5,185.4z"/>
		<path id="XMLID_1143_" class="st0" d="M94.3,182c3.2,0,4.6-2.1,4.6-5.1v-5.1c0-7.9-15.2-4.7-15.2-15.2v-5.1c0-6.3,4.6-8.7,9.5-8.7
			c2.4,0,4.9,0.5,6.8,2.7h0.2l0.5-2.3h4.1c0,3.7,0,7.5,0,11.3h-6.2v-3.1c0-3-1.6-4.6-4.4-4.6s-4.3,1.7-4.3,4.6v5.1
			c0,7.3,15.3,4,15.3,15.1v5.2c0,6.7-5.5,9.2-11.2,9.2c-5.8,0-10.8-2.8-10.8-9.3v-3.3H90v3.4C90,180.5,91.6,182,94.3,182z"/>
		<path id="XMLID_1145_" class="st0" d="M128.2,147.1c0,11.5,0,22.9,0,34.4l2.6,1.9v2c-3.5,0-8.2,0-11.6,0v-2l2.6-1.9
			c0-11.5,0-22.9,0-34.4h-4.5l-1.9,6.9h-2.9l0.2-10.7h24.4l0.2,10.7h-2.9l-2-6.9H128.2z"/>
		<path id="XMLID_1147_" class="st0" d="M169.8,174.8c0,6.8-4.7,11.2-12.1,11.2c-7.3,0-12-4.5-12-11.2v-20.9c0-6.7,4.7-11.2,12-11.2
			c7.4,0,12.1,4.4,12.1,11.2V174.8z M151.9,174.8c0,4.7,1.8,7.2,5.8,7.2c4,0,5.9-3.3,5.9-7.2v-20.9c0-4-1.9-7.2-5.9-7.2
			c-4,0-5.8,2.5-5.8,7.2V174.8z"/>
		<path id="XMLID_1150_" class="st0" d="M190.5,176.2l6.1-31.7h3.9l5.8,31.4h0.1c1.7-9.9,3.4-19.7,5-29.6l-2.3-1.1v-1.9h8.3v1.9
			l-2.2,1.1l-6.9,39.3H202l-4.7-24.1l-5.1,24.1h-6.1l-6.5-39.2l-2.3-1.3v-1.9h11.2v1.9l-2.5,1.1L190.5,176.2L190.5,176.2z"/>
		<path id="XMLID_1152_" class="st0" d="M223.7,185.4v-1.7l2.7-1.8c0-11.8,0-23.7,0-35.4l-2.3-1.6v-1.6c7.3,0,14.1,0,21.4,0v9.4h-3
			l-1.7-5.9h-8.2c0,5.2,0,10.5,0,15.8h5.8l1.6-3.3h1.8c0,2.9,0,7.2,0,10.2H240l-1.6-3.2h-5.8c0,4.4,0,8.8,0,13.3
			c0,1-0.2,1.5-1.3,1.9v0.3c3.4,0,6.8,0,10.2,0l2-5.8h2.6v9.4C238.8,185.4,231.2,185.4,223.7,185.4z"/>
		<path id="XMLID_1154_" class="st0" d="M278.7,176.9c0,6-3.7,8.5-10.7,8.5h-13.8v-1.7l2.7-1.8c0-11.8,0-23.5,0-35.3l-2.3-1.6v-1.7
			H268c5.6,0,9.5,1.5,9.5,7.7v6.1c0,2.3-1.2,4.6-3.4,5.5c2.8,1.1,4.6,3.2,4.6,7.1V176.9z M267.9,181.8c3.2,0,4.6-1.8,4.6-4.9v-7.1
			c0-3.5-1.4-5.2-5.1-5.2H263c0,4.7,0,10.2,0,14.9c0,1.1-0.2,1.6-1.3,2v0.3H267.9z M271.2,157.1v-6.1c0-2.3-1.3-4.2-3.7-4.2H263
			c0,5.2,0,9.6,0,14.8c1.7,0,2.8,0,4.4,0C270.1,161.6,271.2,159.9,271.2,157.1z"/>
	</g>
	<g id="XMLID_1039_">
		<path id="XMLID_1040_" class="st1" d="M21.9,202.9c-0.3,0.2-0.8,0.3-1.2,0.3c-0.6,0-1.2-0.2-1.6-0.6c-0.4-0.4-0.6-1-0.6-1.6
			c0-0.7,0.2-1.3,0.6-1.8c0.4-0.5,1-0.7,1.7-0.7c0.4,0,0.7,0.1,1,0.2v0.7c-0.3-0.2-0.7-0.4-1.1-0.4c-0.5,0-0.8,0.2-1.1,0.5
			c-0.3,0.3-0.4,0.8-0.4,1.3c0,0.5,0.1,0.9,0.4,1.3c0.3,0.3,0.7,0.5,1.1,0.5c0.4,0,0.8-0.1,1.1-0.4V202.9z"/>
		<path id="XMLID_1042_" class="st1" d="M27.1,199.3c-0.1-0.1-0.3-0.1-0.5-0.1c-0.3,0-0.6,0.1-0.8,0.4c-0.2,0.3-0.3,0.7-0.3,1.2v2.3
			h-0.7v-4.5h0.7v0.9h0c0.1-0.3,0.3-0.6,0.5-0.7c0.2-0.2,0.4-0.3,0.7-0.3c0.2,0,0.3,0,0.4,0.1V199.3z"/>
		<path id="XMLID_1044_" class="st1" d="M33.2,201H30c0,0.5,0.1,0.9,0.4,1.2c0.3,0.3,0.6,0.4,1.1,0.4c0.5,0,1-0.2,1.4-0.5v0.7
			c-0.4,0.3-0.9,0.4-1.6,0.4c-0.6,0-1.1-0.2-1.5-0.6c-0.4-0.4-0.5-1-0.5-1.7c0-0.7,0.2-1.3,0.6-1.7c0.4-0.4,0.9-0.7,1.5-0.7
			c0.6,0,1,0.2,1.4,0.6c0.3,0.4,0.5,0.9,0.5,1.6V201z M32.5,200.4c0-0.4-0.1-0.7-0.3-1c-0.2-0.2-0.5-0.3-0.8-0.3
			c-0.3,0-0.6,0.1-0.9,0.4c-0.2,0.2-0.4,0.6-0.4,1H32.5z"/>
		<path id="XMLID_1047_" class="st1" d="M39.4,203.1h-0.7v-0.7h0c-0.3,0.5-0.8,0.8-1.4,0.8c-0.5,0-0.8-0.1-1.1-0.4
			c-0.3-0.2-0.4-0.6-0.4-0.9c0-0.8,0.5-1.3,1.5-1.5l1.4-0.2c0-0.8-0.3-1.2-0.9-1.2c-0.5,0-1,0.2-1.5,0.6v-0.7c0.4-0.3,1-0.4,1.5-0.4
			c1.1,0,1.6,0.6,1.6,1.7V203.1z M38.6,200.8l-1.1,0.2c-0.3,0-0.6,0.1-0.8,0.2c-0.2,0.1-0.3,0.3-0.3,0.6c0,0.2,0.1,0.4,0.2,0.5
			c0.2,0.1,0.4,0.2,0.6,0.2c0.4,0,0.7-0.1,0.9-0.4c0.2-0.3,0.4-0.6,0.4-1V200.8z"/>
		<path id="XMLID_1050_" class="st1" d="M44.6,203.1c-0.2,0.1-0.4,0.1-0.7,0.1c-0.8,0-1.2-0.4-1.2-1.3v-2.7H42v-0.6h0.8v-1.1
			l0.7-0.2v1.3h1.1v0.6h-1.1v2.5c0,0.3,0.1,0.5,0.2,0.6c0.1,0.1,0.3,0.2,0.5,0.2c0.2,0,0.3,0,0.5-0.1V203.1z"/>
		<path id="XMLID_1052_" class="st1" d="M47.8,197.4c-0.1,0-0.2,0-0.3-0.1c-0.1-0.1-0.1-0.2-0.1-0.3c0-0.1,0-0.2,0.1-0.3
			c0.1-0.1,0.2-0.1,0.3-0.1c0.1,0,0.2,0,0.3,0.1c0.1,0.1,0.1,0.2,0.1,0.3c0,0.1,0,0.2-0.1,0.3C48,197.4,47.9,197.4,47.8,197.4z
			 M48.1,203.1h-0.7v-4.5h0.7V203.1z"/>
		<path id="XMLID_1055_" class="st1" d="M55.1,203.1h-0.7v-2.6c0-1-0.4-1.4-1-1.4c-0.4,0-0.7,0.1-0.9,0.4c-0.2,0.3-0.4,0.6-0.4,1
			v2.6h-0.7v-4.5h0.7v0.7h0c0.3-0.6,0.8-0.9,1.5-0.9c0.5,0,0.9,0.2,1.1,0.5c0.3,0.3,0.4,0.8,0.4,1.4V203.1z"/>
		<path id="XMLID_1057_" class="st1" d="M62.2,202.7c0,1.7-0.8,2.5-2.4,2.5c-0.6,0-1-0.1-1.5-0.3v-0.7c0.5,0.3,1,0.4,1.5,0.4
			c1.1,0,1.7-0.6,1.7-1.8v-0.5h0c-0.3,0.6-0.9,0.9-1.6,0.9c-0.6,0-1-0.2-1.4-0.6c-0.3-0.4-0.5-0.9-0.5-1.6c0-0.8,0.2-1.4,0.6-1.8
			c0.4-0.5,0.9-0.7,1.5-0.7c0.6,0,1.1,0.2,1.4,0.7h0v-0.6h0.7V202.7z M61.4,201.1v-0.7c0-0.4-0.1-0.7-0.4-0.9
			c-0.2-0.3-0.5-0.4-0.9-0.4c-0.4,0-0.8,0.2-1,0.5c-0.3,0.3-0.4,0.8-0.4,1.4c0,0.5,0.1,0.9,0.4,1.2c0.2,0.3,0.6,0.5,1,0.5
			c0.4,0,0.7-0.1,1-0.4C61.3,201.9,61.4,201.5,61.4,201.1z"/>
		<path id="XMLID_1060_" class="st1" d="M71.8,203.1c-0.2,0.1-0.4,0.1-0.7,0.1c-0.8,0-1.2-0.4-1.2-1.3v-2.7h-0.8v-0.6h0.8v-1.1
			l0.7-0.2v1.3h1.1v0.6h-1.1v2.5c0,0.3,0.1,0.5,0.2,0.6c0.1,0.1,0.3,0.2,0.5,0.2c0.2,0,0.3,0,0.5-0.1V203.1z"/>
		<path id="XMLID_1062_" class="st1" d="M78.3,203.1h-0.7v-2.6c0-0.9-0.4-1.4-1-1.4c-0.4,0-0.6,0.1-0.9,0.4c-0.2,0.3-0.4,0.6-0.4,1
			v2.6h-0.7v-6.7h0.7v2.9h0c0.3-0.6,0.8-0.9,1.5-0.9c1,0,1.5,0.6,1.5,1.8V203.1z"/>
		<path id="XMLID_1064_" class="st1" d="M85.1,201h-3.2c0,0.5,0.1,0.9,0.4,1.2c0.3,0.3,0.6,0.4,1.1,0.4c0.5,0,1-0.2,1.4-0.5v0.7
			c-0.4,0.3-0.9,0.4-1.6,0.4c-0.6,0-1.1-0.2-1.5-0.6c-0.4-0.4-0.5-1-0.5-1.7c0-0.7,0.2-1.3,0.6-1.7c0.4-0.4,0.9-0.7,1.5-0.7
			c0.6,0,1,0.2,1.4,0.6c0.3,0.4,0.5,0.9,0.5,1.6V201z M84.4,200.4c0-0.4-0.1-0.7-0.3-1c-0.2-0.2-0.5-0.3-0.8-0.3
			c-0.3,0-0.6,0.1-0.9,0.4c-0.2,0.2-0.4,0.6-0.4,1H84.4z"/>
		<path id="XMLID_1067_" class="st1" d="M93,202.5L93,202.5l0,0.7h-0.7v-6.7H93v3h0c0.4-0.6,0.9-0.9,1.6-0.9c0.6,0,1,0.2,1.4,0.6
			c0.3,0.4,0.5,0.9,0.5,1.6c0,0.8-0.2,1.4-0.6,1.8c-0.4,0.5-0.9,0.7-1.5,0.7C93.8,203.2,93.3,203,93,202.5z M93,200.6v0.6
			c0,0.4,0.1,0.7,0.4,0.9c0.2,0.3,0.6,0.4,0.9,0.4c0.4,0,0.8-0.2,1-0.5c0.2-0.3,0.4-0.8,0.4-1.4c0-0.5-0.1-0.9-0.3-1.2
			c-0.2-0.3-0.5-0.4-0.9-0.4c-0.4,0-0.8,0.1-1,0.4C93.1,199.8,93,200.2,93,200.6z"/>
		<path id="XMLID_1070_" class="st1" d="M103,201h-3.2c0,0.5,0.1,0.9,0.4,1.2c0.3,0.3,0.6,0.4,1.1,0.4c0.5,0,1-0.2,1.4-0.5v0.7
			c-0.4,0.3-0.9,0.4-1.6,0.4c-0.6,0-1.1-0.2-1.5-0.6c-0.4-0.4-0.5-1-0.5-1.7c0-0.7,0.2-1.3,0.6-1.7c0.4-0.4,0.9-0.7,1.5-0.7
			c0.6,0,1,0.2,1.4,0.6c0.3,0.4,0.5,0.9,0.5,1.6V201z M102.3,200.4c0-0.4-0.1-0.7-0.3-1c-0.2-0.2-0.5-0.3-0.8-0.3
			c-0.3,0-0.6,0.1-0.9,0.4c-0.2,0.2-0.4,0.6-0.4,1H102.3z"/>
		<path id="XMLID_1073_" class="st1" d="M105.7,202.9v-0.8c0.4,0.3,0.8,0.4,1.3,0.4c0.6,0,1-0.2,1-0.6c0-0.1,0-0.2-0.1-0.3
			c-0.1-0.1-0.1-0.2-0.2-0.2c-0.1-0.1-0.2-0.1-0.3-0.2c-0.1-0.1-0.3-0.1-0.4-0.2c-0.2-0.1-0.4-0.2-0.5-0.2c-0.2-0.1-0.3-0.2-0.4-0.3
			c-0.1-0.1-0.2-0.2-0.2-0.3c-0.1-0.1-0.1-0.3-0.1-0.5c0-0.2,0-0.4,0.1-0.6c0.1-0.2,0.2-0.3,0.4-0.4c0.2-0.1,0.3-0.2,0.6-0.2
			c0.2-0.1,0.4-0.1,0.6-0.1c0.4,0,0.7,0.1,1,0.2v0.7c-0.3-0.2-0.7-0.3-1.1-0.3c-0.1,0-0.3,0-0.4,0c-0.1,0-0.2,0.1-0.3,0.1
			c-0.1,0.1-0.1,0.1-0.2,0.2c0,0.1-0.1,0.2-0.1,0.3c0,0.1,0,0.2,0.1,0.3c0,0.1,0.1,0.2,0.2,0.2c0.1,0.1,0.2,0.1,0.3,0.2
			c0.1,0,0.3,0.1,0.4,0.2c0.2,0.1,0.4,0.2,0.5,0.2c0.2,0.1,0.3,0.2,0.4,0.3c0.1,0.1,0.2,0.2,0.3,0.4c0.1,0.1,0.1,0.3,0.1,0.5
			c0,0.2,0,0.4-0.1,0.6c-0.1,0.2-0.2,0.3-0.4,0.4c-0.2,0.1-0.4,0.2-0.6,0.2c-0.2,0.1-0.4,0.1-0.7,0.1
			C106.4,203.2,106,203.1,105.7,202.9z"/>
		<path id="XMLID_1075_" class="st1" d="M113.7,203.1c-0.2,0.1-0.4,0.1-0.7,0.1c-0.8,0-1.2-0.4-1.2-1.3v-2.7H111v-0.6h0.8v-1.1
			l0.7-0.2v1.3h1.1v0.6h-1.1v2.5c0,0.3,0.1,0.5,0.2,0.6c0.1,0.1,0.3,0.2,0.5,0.2c0.2,0,0.3,0,0.5-0.1V203.1z"/>
		<path id="XMLID_1077_" class="st1" d="M123.8,202.9c-0.3,0.2-0.8,0.3-1.2,0.3c-0.6,0-1.2-0.2-1.6-0.6c-0.4-0.4-0.6-1-0.6-1.6
			c0-0.7,0.2-1.3,0.6-1.8c0.4-0.5,1-0.7,1.7-0.7c0.4,0,0.7,0.1,1,0.2v0.7c-0.3-0.2-0.7-0.4-1.1-0.4c-0.5,0-0.8,0.2-1.1,0.5
			c-0.3,0.3-0.4,0.8-0.4,1.3c0,0.5,0.1,0.9,0.4,1.3c0.3,0.3,0.7,0.5,1.1,0.5c0.4,0,0.8-0.1,1.1-0.4V202.9z"/>
		<path id="XMLID_1079_" class="st1" d="M128.6,203.2c-0.7,0-1.2-0.2-1.6-0.6c-0.4-0.4-0.6-1-0.6-1.7c0-0.8,0.2-1.4,0.6-1.8
			c0.4-0.4,1-0.6,1.7-0.6c0.7,0,1.2,0.2,1.6,0.6c0.4,0.4,0.6,1,0.6,1.7c0,0.7-0.2,1.3-0.6,1.7C129.8,203,129.3,203.2,128.6,203.2z
			 M128.6,199.1c-0.5,0-0.8,0.2-1.1,0.5c-0.3,0.3-0.4,0.8-0.4,1.3c0,0.5,0.1,1,0.4,1.3c0.3,0.3,0.6,0.5,1.1,0.5
			c0.5,0,0.8-0.2,1.1-0.5c0.3-0.3,0.4-0.7,0.4-1.3c0-0.6-0.1-1-0.4-1.3C129.5,199.3,129.1,199.1,128.6,199.1z"/>
		<path id="XMLID_1082_" class="st1" d="M137.5,203.1h-0.7v-2.6c0-1-0.4-1.4-1-1.4c-0.4,0-0.7,0.1-0.9,0.4c-0.2,0.3-0.4,0.6-0.4,1
			v2.6h-0.7v-4.5h0.7v0.7h0c0.3-0.6,0.8-0.9,1.5-0.9c0.5,0,0.9,0.2,1.1,0.5c0.3,0.3,0.4,0.8,0.4,1.4V203.1z"/>
		<path id="XMLID_1084_" class="st1" d="M144.6,203.1h-0.7v-0.8h0c-0.3,0.6-0.9,0.9-1.6,0.9c-0.6,0-1-0.2-1.4-0.6
			c-0.3-0.4-0.5-1-0.5-1.7c0-0.7,0.2-1.3,0.6-1.8c0.4-0.4,0.9-0.7,1.5-0.7c0.6,0,1.1,0.2,1.4,0.7h0v-2.8h0.7V203.1z M143.8,201.1
			v-0.7c0-0.4-0.1-0.7-0.4-0.9c-0.2-0.3-0.5-0.4-0.9-0.4c-0.4,0-0.8,0.2-1,0.5c-0.3,0.3-0.4,0.8-0.4,1.3c0,0.5,0.1,0.9,0.4,1.2
			c0.2,0.3,0.6,0.5,1,0.5c0.4,0,0.7-0.1,1-0.4C143.7,201.9,143.8,201.5,143.8,201.1z"/>
		<path id="XMLID_1087_" class="st1" d="M148.2,197.4c-0.1,0-0.2,0-0.3-0.1c-0.1-0.1-0.1-0.2-0.1-0.3c0-0.1,0-0.2,0.1-0.3
			c0.1-0.1,0.2-0.1,0.3-0.1c0.1,0,0.2,0,0.3,0.1c0.1,0.1,0.1,0.2,0.1,0.3c0,0.1,0,0.2-0.1,0.3C148.5,197.4,148.3,197.4,148.2,197.4z
			 M148.6,203.1h-0.7v-4.5h0.7V203.1z"/>
		<path id="XMLID_1090_" class="st1" d="M153.9,203.1c-0.2,0.1-0.4,0.1-0.7,0.1c-0.8,0-1.2-0.4-1.2-1.3v-2.7h-0.8v-0.6h0.8v-1.1
			l0.7-0.2v1.3h1.1v0.6h-1.1v2.5c0,0.3,0.1,0.5,0.2,0.6c0.1,0.1,0.3,0.2,0.5,0.2c0.2,0,0.3,0,0.5-0.1V203.1z"/>
		<path id="XMLID_1092_" class="st1" d="M157.1,197.4c-0.1,0-0.2,0-0.3-0.1c-0.1-0.1-0.1-0.2-0.1-0.3c0-0.1,0-0.2,0.1-0.3
			c0.1-0.1,0.2-0.1,0.3-0.1c0.1,0,0.2,0,0.3,0.1c0.1,0.1,0.1,0.2,0.1,0.3c0,0.1,0,0.2-0.1,0.3C157.3,197.4,157.2,197.4,157.1,197.4z
			 M157.4,203.1h-0.7v-4.5h0.7V203.1z"/>
		<path id="XMLID_1095_" class="st1" d="M162.6,203.2c-0.7,0-1.2-0.2-1.6-0.6c-0.4-0.4-0.6-1-0.6-1.7c0-0.8,0.2-1.4,0.6-1.8
			c0.4-0.4,1-0.6,1.7-0.6c0.7,0,1.2,0.2,1.6,0.6c0.4,0.4,0.6,1,0.6,1.7c0,0.7-0.2,1.3-0.6,1.7C163.8,203,163.3,203.2,162.6,203.2z
			 M162.6,199.1c-0.5,0-0.8,0.2-1.1,0.5c-0.3,0.3-0.4,0.8-0.4,1.3c0,0.5,0.1,1,0.4,1.3c0.3,0.3,0.6,0.5,1.1,0.5
			c0.5,0,0.8-0.2,1.1-0.5c0.3-0.3,0.4-0.7,0.4-1.3c0-0.6-0.1-1-0.4-1.3C163.5,199.3,163.1,199.1,162.6,199.1z"/>
		<path id="XMLID_1098_" class="st1" d="M171.5,203.1h-0.7v-2.6c0-1-0.4-1.4-1-1.4c-0.4,0-0.7,0.1-0.9,0.4c-0.2,0.3-0.4,0.6-0.4,1
			v2.6h-0.7v-4.5h0.7v0.7h0c0.3-0.6,0.8-0.9,1.5-0.9c0.5,0,0.9,0.2,1.1,0.5c0.3,0.3,0.4,0.8,0.4,1.4V203.1z"/>
		<path id="XMLID_1100_" class="st1" d="M174.4,202.9v-0.8c0.4,0.3,0.8,0.4,1.3,0.4c0.6,0,1-0.2,1-0.6c0-0.1,0-0.2-0.1-0.3
			c-0.1-0.1-0.1-0.2-0.2-0.2c-0.1-0.1-0.2-0.1-0.3-0.2c-0.1-0.1-0.3-0.1-0.4-0.2c-0.2-0.1-0.4-0.2-0.5-0.2c-0.2-0.1-0.3-0.2-0.4-0.3
			c-0.1-0.1-0.2-0.2-0.2-0.3c-0.1-0.1-0.1-0.3-0.1-0.5c0-0.2,0-0.4,0.1-0.6c0.1-0.2,0.2-0.3,0.4-0.4c0.2-0.1,0.3-0.2,0.6-0.2
			c0.2-0.1,0.4-0.1,0.6-0.1c0.4,0,0.7,0.1,1,0.2v0.7c-0.3-0.2-0.7-0.3-1.1-0.3c-0.1,0-0.3,0-0.4,0c-0.1,0-0.2,0.1-0.3,0.1
			c-0.1,0.1-0.1,0.1-0.2,0.2c0,0.1-0.1,0.2-0.1,0.3c0,0.1,0,0.2,0.1,0.3c0,0.1,0.1,0.2,0.2,0.2c0.1,0.1,0.2,0.1,0.3,0.2
			c0.1,0,0.3,0.1,0.4,0.2c0.2,0.1,0.4,0.2,0.5,0.2c0.2,0.1,0.3,0.2,0.4,0.3c0.1,0.1,0.2,0.2,0.3,0.4c0.1,0.1,0.1,0.3,0.1,0.5
			c0,0.2,0,0.4-0.1,0.6c-0.1,0.2-0.2,0.3-0.4,0.4c-0.2,0.1-0.4,0.2-0.6,0.2c-0.2,0.1-0.4,0.1-0.7,0.1
			C175.2,203.2,174.8,203.1,174.4,202.9z"/>
		<path id="XMLID_1102_" class="st1" d="M186.8,197.1c-0.1-0.1-0.3-0.1-0.5-0.1c-0.5,0-0.8,0.3-0.8,1v0.7h1.1v0.6h-1.1v3.9h-0.7
			v-3.9h-0.8v-0.6h0.8v-0.7c0-0.5,0.1-0.8,0.4-1.1c0.3-0.3,0.6-0.4,1-0.4c0.2,0,0.4,0,0.5,0.1V197.1z"/>
		<path id="XMLID_1104_" class="st1" d="M191.1,203.2c-0.7,0-1.2-0.2-1.6-0.6c-0.4-0.4-0.6-1-0.6-1.7c0-0.8,0.2-1.4,0.6-1.8
			c0.4-0.4,1-0.6,1.7-0.6c0.7,0,1.2,0.2,1.6,0.6c0.4,0.4,0.6,1,0.6,1.7c0,0.7-0.2,1.3-0.6,1.7C192.4,203,191.8,203.2,191.1,203.2z
			 M191.2,199.1c-0.5,0-0.8,0.2-1.1,0.5c-0.3,0.3-0.4,0.8-0.4,1.3c0,0.5,0.1,1,0.4,1.3s0.6,0.5,1.1,0.5c0.5,0,0.8-0.2,1.1-0.5
			c0.3-0.3,0.4-0.7,0.4-1.3c0-0.6-0.1-1-0.4-1.3C192,199.3,191.7,199.1,191.2,199.1z"/>
		<path id="XMLID_1107_" class="st1" d="M198.7,199.3c-0.1-0.1-0.3-0.1-0.5-0.1c-0.3,0-0.6,0.1-0.8,0.4c-0.2,0.3-0.3,0.7-0.3,1.2
			v2.3h-0.7v-4.5h0.7v0.9h0c0.1-0.3,0.3-0.6,0.5-0.7c0.2-0.2,0.4-0.3,0.7-0.3c0.2,0,0.3,0,0.4,0.1V199.3z"/>
		<path id="XMLID_1109_" class="st1" d="M209.2,198.6l-2.1,5.2c-0.4,0.9-0.9,1.4-1.6,1.4c-0.2,0-0.3,0-0.5-0.1v-0.6
			c0.2,0.1,0.3,0.1,0.4,0.1c0.4,0,0.6-0.2,0.8-0.7l0.4-0.9l-1.8-4.5h0.8l1.2,3.5c0,0,0,0.2,0.1,0.3h0c0-0.1,0-0.2,0.1-0.3l1.3-3.5
			H209.2z"/>
		<path id="XMLID_1111_" class="st1" d="M213.6,203.2c-0.7,0-1.2-0.2-1.6-0.6c-0.4-0.4-0.6-1-0.6-1.7c0-0.8,0.2-1.4,0.6-1.8
			c0.4-0.4,1-0.6,1.7-0.6c0.7,0,1.2,0.2,1.6,0.6c0.4,0.4,0.6,1,0.6,1.7c0,0.7-0.2,1.3-0.6,1.7C214.8,203,214.3,203.2,213.6,203.2z
			 M213.6,199.1c-0.5,0-0.8,0.2-1.1,0.5c-0.3,0.3-0.4,0.8-0.4,1.3c0,0.5,0.1,1,0.4,1.3c0.3,0.3,0.6,0.5,1.1,0.5
			c0.5,0,0.8-0.2,1.1-0.5c0.3-0.3,0.4-0.7,0.4-1.3c0-0.6-0.1-1-0.4-1.3C214.5,199.3,214.1,199.1,213.6,199.1z"/>
		<path id="XMLID_1114_" class="st1" d="M222.5,203.1h-0.7v-0.7h0c-0.3,0.5-0.8,0.8-1.4,0.8c-1.1,0-1.6-0.6-1.6-1.9v-2.7h0.7v2.6
			c0,1,0.4,1.4,1.1,1.4c0.4,0,0.6-0.1,0.9-0.4c0.2-0.3,0.3-0.6,0.3-1v-2.6h0.7V203.1z"/>
		<path id="XMLID_1116_" class="st1" d="M228.1,199.3c-0.1-0.1-0.3-0.1-0.5-0.1c-0.3,0-0.6,0.1-0.8,0.4c-0.2,0.3-0.3,0.7-0.3,1.2
			v2.3h-0.7v-4.5h0.7v0.9h0c0.1-0.3,0.3-0.6,0.5-0.7c0.2-0.2,0.4-0.3,0.7-0.3c0.2,0,0.3,0,0.4,0.1V199.3z"/>
		<path id="XMLID_1118_" class="st1" d="M235.7,202.5L235.7,202.5l0,0.7h-0.7v-6.7h0.7v3h0c0.4-0.6,0.9-0.9,1.6-0.9
			c0.6,0,1,0.2,1.4,0.6s0.5,0.9,0.5,1.6c0,0.8-0.2,1.4-0.6,1.8c-0.4,0.5-0.9,0.7-1.5,0.7C236.4,203.2,236,203,235.7,202.5z
			 M235.7,200.6v0.6c0,0.4,0.1,0.7,0.4,0.9c0.2,0.3,0.6,0.4,0.9,0.4c0.4,0,0.8-0.2,1-0.5c0.2-0.3,0.4-0.8,0.4-1.4
			c0-0.5-0.1-0.9-0.3-1.2c-0.2-0.3-0.5-0.4-0.9-0.4c-0.4,0-0.8,0.1-1,0.4C235.8,199.8,235.7,200.2,235.7,200.6z"/>
		<path id="XMLID_1121_" class="st1" d="M245.7,203.1H245v-0.7h0c-0.3,0.5-0.8,0.8-1.4,0.8c-1.1,0-1.6-0.6-1.6-1.9v-2.7h0.7v2.6
			c0,1,0.4,1.4,1.1,1.4c0.4,0,0.6-0.1,0.9-0.4c0.2-0.3,0.3-0.6,0.3-1v-2.6h0.7V203.1z"/>
		<path id="XMLID_1123_" class="st1" d="M248.7,202.9v-0.8c0.4,0.3,0.8,0.4,1.3,0.4c0.6,0,1-0.2,1-0.6c0-0.1,0-0.2-0.1-0.3
			c-0.1-0.1-0.1-0.2-0.2-0.2c-0.1-0.1-0.2-0.1-0.3-0.2c-0.1-0.1-0.3-0.1-0.4-0.2c-0.2-0.1-0.4-0.2-0.5-0.2c-0.2-0.1-0.3-0.2-0.4-0.3
			c-0.1-0.1-0.2-0.2-0.2-0.3c-0.1-0.1-0.1-0.3-0.1-0.5c0-0.2,0-0.4,0.1-0.6c0.1-0.2,0.2-0.3,0.4-0.4c0.2-0.1,0.3-0.2,0.6-0.2
			c0.2-0.1,0.4-0.1,0.6-0.1c0.4,0,0.7,0.1,1,0.2v0.7c-0.3-0.2-0.7-0.3-1.1-0.3c-0.1,0-0.3,0-0.4,0c-0.1,0-0.2,0.1-0.3,0.1
			c-0.1,0.1-0.1,0.1-0.2,0.2c0,0.1-0.1,0.2-0.1,0.3c0,0.1,0,0.2,0.1,0.3c0,0.1,0.1,0.2,0.2,0.2c0.1,0.1,0.2,0.1,0.3,0.2
			c0.1,0,0.3,0.1,0.4,0.2c0.2,0.1,0.4,0.2,0.5,0.2c0.2,0.1,0.3,0.2,0.4,0.3c0.1,0.1,0.2,0.2,0.3,0.4c0.1,0.1,0.1,0.3,0.1,0.5
			c0,0.2,0,0.4-0.1,0.6c-0.1,0.2-0.2,0.3-0.4,0.4c-0.2,0.1-0.4,0.2-0.6,0.2c-0.2,0.1-0.4,0.1-0.7,0.1
			C249.4,203.2,249,203.1,248.7,202.9z"/>
		<path id="XMLID_1125_" class="st1" d="M255,197.4c-0.1,0-0.2,0-0.3-0.1c-0.1-0.1-0.1-0.2-0.1-0.3c0-0.1,0-0.2,0.1-0.3
			c0.1-0.1,0.2-0.1,0.3-0.1c0.1,0,0.2,0,0.3,0.1c0.1,0.1,0.1,0.2,0.1,0.3c0,0.1,0,0.2-0.1,0.3C255.2,197.4,255.1,197.4,255,197.4z
			 M255.3,203.1h-0.7v-4.5h0.7V203.1z"/>
		<path id="XMLID_1128_" class="st1" d="M262.3,203.1h-0.7v-2.6c0-1-0.3-1.4-1-1.4c-0.4,0-0.7,0.1-0.9,0.4c-0.2,0.3-0.4,0.6-0.4,1
			v2.6h-0.7v-4.5h0.7v0.7h0c0.3-0.6,0.8-0.9,1.5-0.9c0.5,0,0.9,0.2,1.1,0.5c0.3,0.3,0.4,0.8,0.4,1.4V203.1z"/>
		<path id="XMLID_1130_" class="st1" d="M269.1,201H266c0,0.5,0.1,0.9,0.4,1.2c0.3,0.3,0.6,0.4,1.1,0.4c0.5,0,1-0.2,1.4-0.5v0.7
			c-0.4,0.3-0.9,0.4-1.6,0.4c-0.6,0-1.1-0.2-1.5-0.6c-0.4-0.4-0.5-1-0.5-1.7c0-0.7,0.2-1.3,0.6-1.7c0.4-0.4,0.9-0.7,1.5-0.7
			c0.6,0,1,0.2,1.4,0.6c0.3,0.4,0.5,0.9,0.5,1.6V201z M268.4,200.4c0-0.4-0.1-0.7-0.3-1c-0.2-0.2-0.5-0.3-0.8-0.3
			c-0.3,0-0.6,0.1-0.9,0.4c-0.2,0.2-0.4,0.6-0.4,1H268.4z"/>
		<path id="XMLID_1133_" class="st1" d="M271.8,202.9v-0.8c0.4,0.3,0.8,0.4,1.3,0.4c0.6,0,1-0.2,1-0.6c0-0.1,0-0.2-0.1-0.3
			c-0.1-0.1-0.1-0.2-0.2-0.2c-0.1-0.1-0.2-0.1-0.3-0.2c-0.1-0.1-0.3-0.1-0.4-0.2c-0.2-0.1-0.4-0.2-0.5-0.2c-0.2-0.1-0.3-0.2-0.4-0.3
			c-0.1-0.1-0.2-0.2-0.2-0.3c-0.1-0.1-0.1-0.3-0.1-0.5c0-0.2,0-0.4,0.1-0.6c0.1-0.2,0.2-0.3,0.4-0.4c0.2-0.1,0.3-0.2,0.6-0.2
			c0.2-0.1,0.4-0.1,0.6-0.1c0.4,0,0.7,0.1,1,0.2v0.7c-0.3-0.2-0.7-0.3-1.1-0.3c-0.1,0-0.3,0-0.4,0c-0.1,0-0.2,0.1-0.3,0.1
			c-0.1,0.1-0.1,0.1-0.2,0.2c0,0.1-0.1,0.2-0.1,0.3c0,0.1,0,0.2,0.1,0.3c0,0.1,0.1,0.2,0.2,0.2c0.1,0.1,0.2,0.1,0.3,0.2
			c0.1,0,0.3,0.1,0.4,0.2c0.2,0.1,0.4,0.2,0.5,0.2c0.2,0.1,0.3,0.2,0.4,0.3c0.1,0.1,0.2,0.2,0.3,0.4c0.1,0.1,0.1,0.3,0.1,0.5
			c0,0.2,0,0.4-0.1,0.6c-0.1,0.2-0.2,0.3-0.4,0.4c-0.2,0.1-0.4,0.2-0.6,0.2c-0.2,0.1-0.4,0.1-0.7,0.1
			C272.5,203.2,272.1,203.1,271.8,202.9z"/>
		<path id="XMLID_1135_" class="st1" d="M277.4,202.9v-0.8c0.4,0.3,0.8,0.4,1.3,0.4c0.6,0,1-0.2,1-0.6c0-0.1,0-0.2-0.1-0.3
			c-0.1-0.1-0.1-0.2-0.2-0.2c-0.1-0.1-0.2-0.1-0.3-0.2c-0.1-0.1-0.3-0.1-0.4-0.2c-0.2-0.1-0.4-0.2-0.5-0.2c-0.2-0.1-0.3-0.2-0.4-0.3
			c-0.1-0.1-0.2-0.2-0.2-0.3c-0.1-0.1-0.1-0.3-0.1-0.5c0-0.2,0-0.4,0.1-0.6c0.1-0.2,0.2-0.3,0.4-0.4c0.2-0.1,0.3-0.2,0.6-0.2
			c0.2-0.1,0.4-0.1,0.6-0.1c0.4,0,0.7,0.1,1,0.2v0.7c-0.3-0.2-0.7-0.3-1.1-0.3c-0.1,0-0.3,0-0.4,0c-0.1,0-0.2,0.1-0.3,0.1
			c-0.1,0.1-0.1,0.1-0.2,0.2c0,0.1-0.1,0.2-0.1,0.3c0,0.1,0,0.2,0.1,0.3c0,0.1,0.1,0.2,0.2,0.2c0.1,0.1,0.2,0.1,0.3,0.2
			c0.1,0,0.3,0.1,0.4,0.2c0.2,0.1,0.4,0.2,0.5,0.2c0.2,0.1,0.3,0.2,0.4,0.3c0.1,0.1,0.2,0.2,0.3,0.4c0.1,0.1,0.1,0.3,0.1,0.5
			c0,0.2,0,0.4-0.1,0.6c-0.1,0.2-0.2,0.3-0.4,0.4c-0.2,0.1-0.4,0.2-0.6,0.2c-0.2,0.1-0.4,0.1-0.7,0.1
			C278.2,203.2,277.8,203.1,277.4,202.9z"/>
	</g>
	<path id="XMLID_678_" class="st2" d="M159.6,118.7c9.4-3.9,17-13.4,20.9-25.8h10.2C185.2,105.9,173.6,115.7,159.6,118.7
		L159.6,118.7z M110.1,92.9h10.2c3.9,12.4,11.5,22,20.8,25.8C127,115.7,115.5,105.9,110.1,92.9L110.1,92.9z M99.2,91.1
		c9,19.2,28.5,32.6,51.1,32.6c22.6,0,42.2-13.3,51.1-32.6c0.2-0.5,0.2-1-0.1-1.4c-0.3-0.4-0.7-0.7-1.2-0.7h-99.6
		c-0.5,0-1,0.2-1.2,0.7C99,90.1,99,90.6,99.2,91.1L99.2,91.1z"/>
	<path id="XMLID_677_" class="st3" d="M116.8,69.2c-4.3,2.2-5.4,6.9-5.1,12.7l-0.4,0.5l-0.6-0.2c-7.1-13.5,8.2-21.4,7.7-31.7
		l0.3-0.5l0.5,0.1c3.9,4.2,2.1,11.9,2.8,16c0.8,5,7.4,3.5,8.5-3.3c0.3-1.7,0.2-3.7-0.4-5.6c-0.6-1.6-1.1-3.4-1.6-5.3
		c-1.9-8-2.7-17.8,5.6-24.6l0.6,0l0.2,0.6c-3.7,11.5,1.9,16.6,6.7,16c7-0.8,10.4-9.3,9.9-15.4c-0.4-5.2-1.5-7.4-3.5-10
		c-5-6.4-9.9-9.9-6.6-18.1L142,0l0.4,0.4c0.7,7.7,8.4,10,15.4,15.5c10.1,7.9,13.7,16.7,8.8,28.9c-1.1,2.6-2,5.3-1.7,7.6
		c1.1,8.1,13.3,4,8.1-6.6l0.1-0.6l0.6-0.1c5.3,3,8.7,9.1,6.5,15.9c-0.6,1.7-1.4,3.4-1.7,5c-1.1,5.1,4.3,4.6,5.9,1.3
		c0.5-1.1,0.7-2.4,0.5-3.6l0.2-0.5l0.6,0c6.1,4.7,7.3,11.3,5.2,17.7l-0.5,0.3l-0.4-0.5c0-3.8-1.7-6.6-4.5-8.1
		c-4.3,4.3-11.1,3.1-12.5-1.4c-1.4-4.5,2.5-9,2.2-11.6c-7.4,9.6-19.8,0.1-15.6-12.6c5-13,2.4-18.1-1.9-22.1
		c6,16.5-10.8,32.2-23.5,23.6c0.2,3,1.1,5.1,1.9,7.1c2.8,7.2,0.8,18.6-7.6,21.2C122.9,78.5,116.6,75.6,116.8,69.2L116.8,69.2z"/>
	<path id="XMLID_617_" class="st0" d="M284.7,115.9h-89.5c1.3-1.2,2.5-2.4,3.7-3.7h87.4h1.6l0.2,1.6c0.2,1.4,0.6,2.7,1.2,4
		c0.6,1.3,1.4,2.4,2.4,3.4c1,1,2.1,1.8,3.4,2.4c1.2,0.6,2.6,1,4,1.2l1.6,0.2v1.6v75.2v1.6l-1.6,0.2c-1.4,0.2-2.7,0.6-4,1.2
		c-1.3,0.6-2.4,1.4-3.4,2.4c-1,1-1.8,2.1-2.4,3.4c-0.6,1.2-1,2.6-1.2,4l-0.2,1.6h-1.6H14.4h-1.6l-0.2-1.6c-0.2-1.4-0.6-2.7-1.2-4
		c-0.6-1.3-1.5-2.4-2.4-3.4l0,0c-1-1-2.1-1.8-3.4-2.4c-1.2-0.6-2.6-1-4-1.2L0,203.4v-1.6v-75.2V125l1.6-0.2c1.4-0.2,2.7-0.6,4-1.2
		c1.3-0.6,2.4-1.4,3.4-2.4c1-1,1.8-2.1,2.4-3.4c0.6-1.2,1-2.6,1.2-4l0.2-1.6h1.6h87.4c1.2,1.3,2.4,2.5,3.7,3.7H15.9
		c-0.3,1.2-0.7,2.4-1.3,3.5c-0.8,1.6-1.9,3.1-3.1,4.4c-1.3,1.3-2.7,2.3-4.4,3.1c-1.1,0.5-2.3,1-3.5,1.3v72.2
		c1.2,0.3,2.4,0.7,3.5,1.3c1.6,0.8,3.1,1.9,4.4,3.1l0,0h0c1.3,1.3,2.3,2.7,3.1,4.4c0.5,1.1,1,2.3,1.3,3.5h268.8
		c0.3-1.2,0.7-2.4,1.3-3.5c0.8-1.6,1.9-3.1,3.1-4.4c1.3-1.3,2.7-2.3,4.4-3.1c1.1-0.5,2.3-1,3.5-1.3v-72.2c-1.2-0.3-2.4-0.7-3.5-1.3
		c-1.6-0.8-3.1-1.9-4.4-3.1l0,0c-1.3-1.3-2.3-2.7-3.1-4.4C285.4,118.3,285,117.1,284.7,115.9L284.7,115.9z"/>
	<g id="XMLID_292_">
		<g id="XMLID_1028_">
			<path id="XMLID_1029_" class="st0" d="M136.8,236.5l0.7-2.1h1v3.5c-2.4,0-5,0-7.4,0v-0.8c-0.1-5.1,4.9-7.1,4.9-11.2
				c0-1-0.4-1.9-1.3-1.9c-1.3,0-1.3,1.8-1.3,2.7h-2.2c0-2.5,0.7-4.2,3.4-4.2c2.3,0,3.7,1,3.7,3.3c0,4-4.8,6-4.8,10.5H136.8z"/>
			<path id="XMLID_1031_" class="st0" d="M145.8,222.8c2.5,0,4,1.3,4,4v7.5c0,2.7-1.5,4-4,4c-2.5,0-4-1.6-4-4v-7.5
				C141.8,224.4,143.3,222.8,145.8,222.8z M144,234.2c0,1.1,0.3,2.6,1.8,2.6c1.5,0,1.8-1.2,1.8-2.6v-7.5c0-1.3-0.3-2.6-1.8-2.6
				c-1.5,0-1.8,1.5-1.8,2.6V234.2z"/>
			<path id="XMLID_1034_" class="st0" d="M154.1,224.3l-1.3-0.4V223c1.3,0,2.1,0,3.4,0c0,4.5,0,9.1,0,13.6l0.9,0.7v0.7
				c-1.2,0-2.8,0-4.1,0v-0.7l1-0.7C154.1,232.5,154.1,228.4,154.1,224.3z"/>
			<path id="XMLID_1036_" class="st0" d="M168.3,231.6v3.1c0,2.4-1.7,3.5-4,3.5c-2.3,0-3.9-1.1-3.9-3.5c0-2.9,0-5.8,0-8.7
				c0-2.2,1.6-3.2,3.8-3.2c2.2,0,3.8,0.7,3.8,3.1v0.8h-2.2V226c0-1.3-0.6-1.8-1.7-1.8c-1,0-1.6,0.7-1.6,1.9c0,1.3,0,2,0,3.3
				C164.1,227.7,168.3,228.1,168.3,231.6z M162.7,234.8c0,1.4,0.7,2,1.7,2c1.2,0,1.8-0.9,1.8-2.1v-3.1c0-2.6-3.4-2.7-3.4,0V234.8z"
				/>
		</g>
		<path id="XMLID_611_" class="st3" d="M178.4,228.7l0.5,1.6l0.2,0.2l1.6,0l0.2,0.2l-0.1,0.3l-1.3,1l-0.1,0.3l0.5,1.6l-0.1,0.3h-0.3
			l-1.3-1H178l-1.3,1l-0.3,0l-0.1-0.3l0.5-1.6l-0.1-0.3l-1.3-1l-0.1-0.3l0.2-0.2l1.6,0l0.2-0.2l0.5-1.6l0.2-0.2L178.4,228.7
			L178.4,228.7z M122.7,228.7l0.5,1.6l0.2,0.2l1.6,0l0.2,0.2l-0.1,0.3l-1.3,1l-0.1,0.3l0.5,1.6l-0.1,0.3h-0.3l-1.3-1h-0.3l-1.3,1
			l-0.3,0l-0.1-0.3l0.5-1.6l-0.1-0.3l-1.3-1l-0.1-0.3l0.2-0.2l1.6,0l0.2-0.2l0.5-1.6l0.2-0.2L122.7,228.7L122.7,228.7z"/>
	</g>
</g>
</svg>
